<?xml version="1.0" encoding="utf-8" standalone="no"?>
<!DOCTYPE svg PUBLIC "-//W3C//DTD SVG 1.1//EN"
  "http://www.w3.org/Graphics/SVG/1.1/DTD/svg11.dtd">
<svg xmlns:xlink="http://www.w3.org/1999/xlink" width="1072.405625pt" height="327.307937pt" viewBox="0 0 1072.405625 327.307937" xmlns="http://www.w3.org/2000/svg" version="1.1">
 <metadata>
  <rdf:RDF xmlns:dc="http://purl.org/dc/elements/1.1/" xmlns:cc="http://creativecommons.org/ns#" xmlns:rdf="http://www.w3.org/1999/02/22-rdf-syntax-ns#">
   <cc:Work>
    <dc:type rdf:resource="http://purl.org/dc/dcmitype/StillImage"/>
    <dc:format>image/svg+xml</dc:format>
    <dc:creator>
     <cc:Agent>
      <dc:title>generate_qwen3_32b_intel_b60_charts.py</dc:title>
     </cc:Agent>
    </dc:creator>
   </cc:Work>
  </rdf:RDF>
 </metadata>
 <defs>
  <style type="text/css">*{stroke-linejoin: round; stroke-linecap: butt}</style>
 </defs>
 <g id="figure_1">
  <g id="patch_1">
   <path d="M 0 327.307937
L 1072.405625 327.307937
L 1072.405625 0
L 0 0
z
" style="fill: #ffffff"/>
  </g>
  <g id="axes_1">
   <g id="patch_2">
    <path d="M 46.965625 292.232
L 352.465625 292.232
L 352.465625 74.4
L 46.965625 74.4
z
" style="fill: #ffffff"/>
   </g>
   <g id="matplotlib.axis_1">
    <g id="xtick_1">
     <g id="line2d_1">
      <defs>
       <path id="m7647d7d37d" d="M 0 0
L 0 3.5
" style="stroke: #57606a; stroke-width: 0.8"/>
      </defs>
      <g>
       <use xlink:href="#m7647d7d37d" x="90.086438" y="292.232" style="fill: #57606a; stroke: #57606a; stroke-width: 0.8"/>
      </g>
     </g>
     <g id="text_1">
      <!-- A1 -->
      <g style="fill: #57606a" transform="translate(83.484876 306.830437) scale(0.1 -0.1)">
       <defs>
        <path id="DejaVuSans-41" d="M 2188 4044
L 1331 1722
L 3047 1722
L 2188 4044
z
M 1831 4666
L 2547 4666
L 4325 0
L 3669 0
L 3244 1197
L 1141 1197
L 716 0
L 50 0
L 1831 4666
z
" transform="scale(0.015625)"/>
        <path id="DejaVuSans-31" d="M 794 531
L 1825 531
L 1825 4091
L 703 3866
L 703 4441
L 1819 4666
L 2450 4666
L 2450 531
L 3481 531
L 3481 0
L 794 0
L 794 531
z
" transform="scale(0.015625)"/>
       </defs>
       <use xlink:href="#DejaVuSans-41"/>
       <use xlink:href="#DejaVuSans-31" transform="translate(68.408203 0)"/>
      </g>
      <!-- Aggregate -->
      <g style="fill: #57606a" transform="translate(64.023157 318.02825) scale(0.1 -0.1)">
       <defs>
        <path id="DejaVuSans-67" d="M 2906 1791
Q 2906 2416 2648 2759
Q 2391 3103 1925 3103
Q 1463 3103 1205 2759
Q 947 2416 947 1791
Q 947 1169 1205 825
Q 1463 481 1925 481
Q 2391 481 2648 825
Q 2906 1169 2906 1791
z
M 3481 434
Q 3481 -459 3084 -895
Q 2688 -1331 1869 -1331
Q 1566 -1331 1297 -1286
Q 1028 -1241 775 -1147
L 775 -588
Q 1028 -725 1275 -790
Q 1522 -856 1778 -856
Q 2344 -856 2625 -561
Q 2906 -266 2906 331
L 2906 616
Q 2728 306 2450 153
Q 2172 0 1784 0
Q 1141 0 747 490
Q 353 981 353 1791
Q 353 2603 747 3093
Q 1141 3584 1784 3584
Q 2172 3584 2450 3431
Q 2728 3278 2906 2969
L 2906 3500
L 3481 3500
L 3481 434
z
" transform="scale(0.015625)"/>
        <path id="DejaVuSans-72" d="M 2631 2963
Q 2534 3019 2420 3045
Q 2306 3072 2169 3072
Q 1681 3072 1420 2755
Q 1159 2438 1159 1844
L 1159 0
L 581 0
L 581 3500
L 1159 3500
L 1159 2956
Q 1341 3275 1631 3429
Q 1922 3584 2338 3584
Q 2397 3584 2469 3576
Q 2541 3569 2628 3553
L 2631 2963
z
" transform="scale(0.015625)"/>
        <path id="DejaVuSans-65" d="M 3597 1894
L 3597 1613
L 953 1613
Q 991 1019 1311 708
Q 1631 397 2203 397
Q 2534 397 2845 478
Q 3156 559 3463 722
L 3463 178
Q 3153 47 2828 -22
Q 2503 -91 2169 -91
Q 1331 -91 842 396
Q 353 884 353 1716
Q 353 2575 817 3079
Q 1281 3584 2069 3584
Q 2775 3584 3186 3129
Q 3597 2675 3597 1894
z
M 3022 2063
Q 3016 2534 2758 2815
Q 2500 3097 2075 3097
Q 1594 3097 1305 2825
Q 1016 2553 972 2059
L 3022 2063
z
" transform="scale(0.015625)"/>
        <path id="DejaVuSans-61" d="M 2194 1759
Q 1497 1759 1228 1600
Q 959 1441 959 1056
Q 959 750 1161 570
Q 1363 391 1709 391
Q 2188 391 2477 730
Q 2766 1069 2766 1631
L 2766 1759
L 2194 1759
z
M 3341 1997
L 3341 0
L 2766 0
L 2766 531
Q 2569 213 2275 61
Q 1981 -91 1556 -91
Q 1019 -91 701 211
Q 384 513 384 1019
Q 384 1609 779 1909
Q 1175 2209 1959 2209
L 2766 2209
L 2766 2266
Q 2766 2663 2505 2880
Q 2244 3097 1772 3097
Q 1472 3097 1187 3025
Q 903 2953 641 2809
L 641 3341
Q 956 3463 1253 3523
Q 1550 3584 1831 3584
Q 2591 3584 2966 3190
Q 3341 2797 3341 1997
z
" transform="scale(0.015625)"/>
        <path id="DejaVuSans-74" d="M 1172 4494
L 1172 3500
L 2356 3500
L 2356 3053
L 1172 3053
L 1172 1153
Q 1172 725 1289 603
Q 1406 481 1766 481
L 2356 481
L 2356 0
L 1766 0
Q 1100 0 847 248
Q 594 497 594 1153
L 594 3053
L 172 3053
L 172 3500
L 594 3500
L 594 4494
L 1172 4494
z
" transform="scale(0.015625)"/>
       </defs>
       <use xlink:href="#DejaVuSans-41"/>
       <use xlink:href="#DejaVuSans-67" transform="translate(68.408203 0)"/>
       <use xlink:href="#DejaVuSans-67" transform="translate(131.884766 0)"/>
       <use xlink:href="#DejaVuSans-72" transform="translate(195.361328 0)"/>
       <use xlink:href="#DejaVuSans-65" transform="translate(234.224609 0)"/>
       <use xlink:href="#DejaVuSans-67" transform="translate(295.748047 0)"/>
       <use xlink:href="#DejaVuSans-61" transform="translate(359.224609 0)"/>
       <use xlink:href="#DejaVuSans-74" transform="translate(420.503906 0)"/>
       <use xlink:href="#DejaVuSans-65" transform="translate(459.712891 0)"/>
      </g>
     </g>
    </g>
    <g id="xtick_2">
     <g id="line2d_2">
      <g>
       <use xlink:href="#m7647d7d37d" x="163.172563" y="292.232" style="fill: #57606a; stroke: #57606a; stroke-width: 0.8"/>
      </g>
     </g>
     <g id="text_2">
      <!-- A2 -->
      <g style="fill: #57606a" transform="translate(156.571 306.830437) scale(0.1 -0.1)">
       <defs>
        <path id="DejaVuSans-32" d="M 1228 531
L 3431 531
L 3431 0
L 469 0
L 469 531
Q 828 903 1448 1529
Q 2069 2156 2228 2338
Q 2531 2678 2651 2914
Q 2772 3150 2772 3378
Q 2772 3750 2511 3984
Q 2250 4219 1831 4219
Q 1534 4219 1204 4116
Q 875 4013 500 3803
L 500 4441
Q 881 4594 1212 4672
Q 1544 4750 1819 4750
Q 2544 4750 2975 4387
Q 3406 4025 3406 3419
Q 3406 3131 3298 2873
Q 3191 2616 2906 2266
Q 2828 2175 2409 1742
Q 1991 1309 1228 531
z
" transform="scale(0.015625)"/>
       </defs>
       <use xlink:href="#DejaVuSans-41"/>
       <use xlink:href="#DejaVuSans-32" transform="translate(68.408203 0)"/>
      </g>
      <!-- 2P2D -->
      <g style="fill: #57606a" transform="translate(149.945219 318.02825) scale(0.1 -0.1)">
       <defs>
        <path id="DejaVuSans-50" d="M 1259 4147
L 1259 2394
L 2053 2394
Q 2494 2394 2734 2622
Q 2975 2850 2975 3272
Q 2975 3691 2734 3919
Q 2494 4147 2053 4147
L 1259 4147
z
M 628 4666
L 2053 4666
Q 2838 4666 3239 4311
Q 3641 3956 3641 3272
Q 3641 2581 3239 2228
Q 2838 1875 2053 1875
L 1259 1875
L 1259 0
L 628 0
L 628 4666
z
" transform="scale(0.015625)"/>
        <path id="DejaVuSans-44" d="M 1259 4147
L 1259 519
L 2022 519
Q 2988 519 3436 956
Q 3884 1394 3884 2338
Q 3884 3275 3436 3711
Q 2988 4147 2022 4147
L 1259 4147
z
M 628 4666
L 1925 4666
Q 3281 4666 3915 4102
Q 4550 3538 4550 2338
Q 4550 1131 3912 565
Q 3275 0 1925 0
L 628 0
L 628 4666
z
" transform="scale(0.015625)"/>
       </defs>
       <use xlink:href="#DejaVuSans-32"/>
       <use xlink:href="#DejaVuSans-50" transform="translate(63.623047 0)"/>
       <use xlink:href="#DejaVuSans-32" transform="translate(123.925781 0)"/>
       <use xlink:href="#DejaVuSans-44" transform="translate(187.548828 0)"/>
      </g>
     </g>
    </g>
    <g id="xtick_3">
     <g id="line2d_3">
      <g>
       <use xlink:href="#m7647d7d37d" x="236.258687" y="292.232" style="fill: #57606a; stroke: #57606a; stroke-width: 0.8"/>
      </g>
     </g>
     <g id="text_3">
      <!-- B1 -->
      <g style="fill: #57606a" transform="translate(229.646968 306.830437) scale(0.1 -0.1)">
       <defs>
        <path id="DejaVuSans-42" d="M 1259 2228
L 1259 519
L 2272 519
Q 2781 519 3026 730
Q 3272 941 3272 1375
Q 3272 1813 3026 2020
Q 2781 2228 2272 2228
L 1259 2228
z
M 1259 4147
L 1259 2741
L 2194 2741
Q 2656 2741 2882 2914
Q 3109 3088 3109 3444
Q 3109 3797 2882 3972
Q 2656 4147 2194 4147
L 1259 4147
z
M 628 4666
L 2241 4666
Q 2963 4666 3353 4366
Q 3744 4066 3744 3513
Q 3744 3084 3544 2831
Q 3344 2578 2956 2516
Q 3422 2416 3680 2098
Q 3938 1781 3938 1306
Q 3938 681 3513 340
Q 3088 0 2303 0
L 628 0
L 628 4666
z
" transform="scale(0.015625)"/>
       </defs>
       <use xlink:href="#DejaVuSans-42"/>
       <use xlink:href="#DejaVuSans-31" transform="translate(68.603516 0)"/>
      </g>
      <!-- 2P2D -->
      <g style="fill: #57606a" transform="translate(223.031343 318.02825) scale(0.1 -0.1)">
       <use xlink:href="#DejaVuSans-32"/>
       <use xlink:href="#DejaVuSans-50" transform="translate(63.623047 0)"/>
       <use xlink:href="#DejaVuSans-32" transform="translate(123.925781 0)"/>
       <use xlink:href="#DejaVuSans-44" transform="translate(187.548828 0)"/>
      </g>
     </g>
    </g>
    <g id="xtick_4">
     <g id="line2d_4">
      <g>
       <use xlink:href="#m7647d7d37d" x="309.344812" y="292.232" style="fill: #57606a; stroke: #57606a; stroke-width: 0.8"/>
      </g>
     </g>
     <g id="text_4">
      <!-- B2 -->
      <g style="fill: #57606a" transform="translate(302.733093 306.830437) scale(0.1 -0.1)">
       <use xlink:href="#DejaVuSans-42"/>
       <use xlink:href="#DejaVuSans-32" transform="translate(68.603516 0)"/>
      </g>
      <!-- Aggregate -->
      <g style="fill: #57606a" transform="translate(283.28153 318.02825) scale(0.1 -0.1)">
       <use xlink:href="#DejaVuSans-41"/>
       <use xlink:href="#DejaVuSans-67" transform="translate(68.408203 0)"/>
       <use xlink:href="#DejaVuSans-67" transform="translate(131.884766 0)"/>
       <use xlink:href="#DejaVuSans-72" transform="translate(195.361328 0)"/>
       <use xlink:href="#DejaVuSans-65" transform="translate(234.224609 0)"/>
       <use xlink:href="#DejaVuSans-67" transform="translate(295.748047 0)"/>
       <use xlink:href="#DejaVuSans-61" transform="translate(359.224609 0)"/>
       <use xlink:href="#DejaVuSans-74" transform="translate(420.503906 0)"/>
       <use xlink:href="#DejaVuSans-65" transform="translate(459.712891 0)"/>
      </g>
     </g>
    </g>
   </g>
   <g id="matplotlib.axis_2">
    <g id="ytick_1">
     <g id="line2d_5">
      <path d="M 46.965625 292.232
L 352.465625 292.232
" clip-path="url(#p78dbe0da02)" style="fill: none; stroke: #d8dee4; stroke-width: 0.7; stroke-linecap: square"/>
     </g>
     <g id="line2d_6">
      <defs>
       <path id="m81624c9e47" d="M 0 0
L -3.5 0
" style="stroke: #57606a; stroke-width: 0.8"/>
      </defs>
      <g>
       <use xlink:href="#m81624c9e47" x="46.965625" y="292.232" style="fill: #57606a; stroke: #57606a; stroke-width: 0.8"/>
      </g>
     </g>
     <g id="text_5">
      <!-- 0 -->
      <g style="fill: #57606a" transform="translate(33.603125 296.031219) scale(0.1 -0.1)">
       <defs>
        <path id="DejaVuSans-30" d="M 2034 4250
Q 1547 4250 1301 3770
Q 1056 3291 1056 2328
Q 1056 1369 1301 889
Q 1547 409 2034 409
Q 2525 409 2770 889
Q 3016 1369 3016 2328
Q 3016 3291 2770 3770
Q 2525 4250 2034 4250
z
M 2034 4750
Q 2819 4750 3233 4129
Q 3647 3509 3647 2328
Q 3647 1150 3233 529
Q 2819 -91 2034 -91
Q 1250 -91 836 529
Q 422 1150 422 2328
Q 422 3509 836 4129
Q 1250 4750 2034 4750
z
" transform="scale(0.015625)"/>
       </defs>
       <use xlink:href="#DejaVuSans-30"/>
      </g>
     </g>
    </g>
    <g id="ytick_2">
     <g id="line2d_7">
      <path d="M 46.965625 265.57586
L 352.465625 265.57586
" clip-path="url(#p78dbe0da02)" style="fill: none; stroke: #d8dee4; stroke-width: 0.7; stroke-linecap: square"/>
     </g>
     <g id="line2d_8">
      <g>
       <use xlink:href="#m81624c9e47" x="46.965625" y="265.57586" style="fill: #57606a; stroke: #57606a; stroke-width: 0.8"/>
      </g>
     </g>
     <g id="text_6">
      <!-- 20 -->
      <g style="fill: #57606a" transform="translate(27.240625 269.375079) scale(0.1 -0.1)">
       <use xlink:href="#DejaVuSans-32"/>
       <use xlink:href="#DejaVuSans-30" transform="translate(63.623047 0)"/>
      </g>
     </g>
    </g>
    <g id="ytick_3">
     <g id="line2d_9">
      <path d="M 46.965625 238.919721
L 352.465625 238.919721
" clip-path="url(#p78dbe0da02)" style="fill: none; stroke: #d8dee4; stroke-width: 0.7; stroke-linecap: square"/>
     </g>
     <g id="line2d_10">
      <g>
       <use xlink:href="#m81624c9e47" x="46.965625" y="238.919721" style="fill: #57606a; stroke: #57606a; stroke-width: 0.8"/>
      </g>
     </g>
     <g id="text_7">
      <!-- 40 -->
      <g style="fill: #57606a" transform="translate(27.240625 242.71894) scale(0.1 -0.1)">
       <defs>
        <path id="DejaVuSans-34" d="M 2419 4116
L 825 1625
L 2419 1625
L 2419 4116
z
M 2253 4666
L 3047 4666
L 3047 1625
L 3713 1625
L 3713 1100
L 3047 1100
L 3047 0
L 2419 0
L 2419 1100
L 313 1100
L 313 1709
L 2253 4666
z
" transform="scale(0.015625)"/>
       </defs>
       <use xlink:href="#DejaVuSans-34"/>
       <use xlink:href="#DejaVuSans-30" transform="translate(63.623047 0)"/>
      </g>
     </g>
    </g>
    <g id="ytick_4">
     <g id="line2d_11">
      <path d="M 46.965625 212.263581
L 352.465625 212.263581
" clip-path="url(#p78dbe0da02)" style="fill: none; stroke: #d8dee4; stroke-width: 0.7; stroke-linecap: square"/>
     </g>
     <g id="line2d_12">
      <g>
       <use xlink:href="#m81624c9e47" x="46.965625" y="212.263581" style="fill: #57606a; stroke: #57606a; stroke-width: 0.8"/>
      </g>
     </g>
     <g id="text_8">
      <!-- 60 -->
      <g style="fill: #57606a" transform="translate(27.240625 216.0628) scale(0.1 -0.1)">
       <defs>
        <path id="DejaVuSans-36" d="M 2113 2584
Q 1688 2584 1439 2293
Q 1191 2003 1191 1497
Q 1191 994 1439 701
Q 1688 409 2113 409
Q 2538 409 2786 701
Q 3034 994 3034 1497
Q 3034 2003 2786 2293
Q 2538 2584 2113 2584
z
M 3366 4563
L 3366 3988
Q 3128 4100 2886 4159
Q 2644 4219 2406 4219
Q 1781 4219 1451 3797
Q 1122 3375 1075 2522
Q 1259 2794 1537 2939
Q 1816 3084 2150 3084
Q 2853 3084 3261 2657
Q 3669 2231 3669 1497
Q 3669 778 3244 343
Q 2819 -91 2113 -91
Q 1303 -91 875 529
Q 447 1150 447 2328
Q 447 3434 972 4092
Q 1497 4750 2381 4750
Q 2619 4750 2861 4703
Q 3103 4656 3366 4563
z
" transform="scale(0.015625)"/>
       </defs>
       <use xlink:href="#DejaVuSans-36"/>
       <use xlink:href="#DejaVuSans-30" transform="translate(63.623047 0)"/>
      </g>
     </g>
    </g>
    <g id="ytick_5">
     <g id="line2d_13">
      <path d="M 46.965625 185.607442
L 352.465625 185.607442
" clip-path="url(#p78dbe0da02)" style="fill: none; stroke: #d8dee4; stroke-width: 0.7; stroke-linecap: square"/>
     </g>
     <g id="line2d_14">
      <g>
       <use xlink:href="#m81624c9e47" x="46.965625" y="185.607442" style="fill: #57606a; stroke: #57606a; stroke-width: 0.8"/>
      </g>
     </g>
     <g id="text_9">
      <!-- 80 -->
      <g style="fill: #57606a" transform="translate(27.240625 189.40666) scale(0.1 -0.1)">
       <defs>
        <path id="DejaVuSans-38" d="M 2034 2216
Q 1584 2216 1326 1975
Q 1069 1734 1069 1313
Q 1069 891 1326 650
Q 1584 409 2034 409
Q 2484 409 2743 651
Q 3003 894 3003 1313
Q 3003 1734 2745 1975
Q 2488 2216 2034 2216
z
M 1403 2484
Q 997 2584 770 2862
Q 544 3141 544 3541
Q 544 4100 942 4425
Q 1341 4750 2034 4750
Q 2731 4750 3128 4425
Q 3525 4100 3525 3541
Q 3525 3141 3298 2862
Q 3072 2584 2669 2484
Q 3125 2378 3379 2068
Q 3634 1759 3634 1313
Q 3634 634 3220 271
Q 2806 -91 2034 -91
Q 1263 -91 848 271
Q 434 634 434 1313
Q 434 1759 690 2068
Q 947 2378 1403 2484
z
M 1172 3481
Q 1172 3119 1398 2916
Q 1625 2713 2034 2713
Q 2441 2713 2670 2916
Q 2900 3119 2900 3481
Q 2900 3844 2670 4047
Q 2441 4250 2034 4250
Q 1625 4250 1398 4047
Q 1172 3844 1172 3481
z
" transform="scale(0.015625)"/>
       </defs>
       <use xlink:href="#DejaVuSans-38"/>
       <use xlink:href="#DejaVuSans-30" transform="translate(63.623047 0)"/>
      </g>
     </g>
    </g>
    <g id="ytick_6">
     <g id="line2d_15">
      <path d="M 46.965625 158.951302
L 352.465625 158.951302
" clip-path="url(#p78dbe0da02)" style="fill: none; stroke: #d8dee4; stroke-width: 0.7; stroke-linecap: square"/>
     </g>
     <g id="line2d_16">
      <g>
       <use xlink:href="#m81624c9e47" x="46.965625" y="158.951302" style="fill: #57606a; stroke: #57606a; stroke-width: 0.8"/>
      </g>
     </g>
     <g id="text_10">
      <!-- 100 -->
      <g style="fill: #57606a" transform="translate(20.878125 162.750521) scale(0.1 -0.1)">
       <use xlink:href="#DejaVuSans-31"/>
       <use xlink:href="#DejaVuSans-30" transform="translate(63.623047 0)"/>
       <use xlink:href="#DejaVuSans-30" transform="translate(127.246094 0)"/>
      </g>
     </g>
    </g>
    <g id="ytick_7">
     <g id="line2d_17">
      <path d="M 46.965625 132.295163
L 352.465625 132.295163
" clip-path="url(#p78dbe0da02)" style="fill: none; stroke: #d8dee4; stroke-width: 0.7; stroke-linecap: square"/>
     </g>
     <g id="line2d_18">
      <g>
       <use xlink:href="#m81624c9e47" x="46.965625" y="132.295163" style="fill: #57606a; stroke: #57606a; stroke-width: 0.8"/>
      </g>
     </g>
     <g id="text_11">
      <!-- 120 -->
      <g style="fill: #57606a" transform="translate(20.878125 136.094381) scale(0.1 -0.1)">
       <use xlink:href="#DejaVuSans-31"/>
       <use xlink:href="#DejaVuSans-32" transform="translate(63.623047 0)"/>
       <use xlink:href="#DejaVuSans-30" transform="translate(127.246094 0)"/>
      </g>
     </g>
    </g>
    <g id="ytick_8">
     <g id="line2d_19">
      <path d="M 46.965625 105.639023
L 352.465625 105.639023
" clip-path="url(#p78dbe0da02)" style="fill: none; stroke: #d8dee4; stroke-width: 0.7; stroke-linecap: square"/>
     </g>
     <g id="line2d_20">
      <g>
       <use xlink:href="#m81624c9e47" x="46.965625" y="105.639023" style="fill: #57606a; stroke: #57606a; stroke-width: 0.8"/>
      </g>
     </g>
     <g id="text_12">
      <!-- 140 -->
      <g style="fill: #57606a" transform="translate(20.878125 109.438242) scale(0.1 -0.1)">
       <use xlink:href="#DejaVuSans-31"/>
       <use xlink:href="#DejaVuSans-34" transform="translate(63.623047 0)"/>
       <use xlink:href="#DejaVuSans-30" transform="translate(127.246094 0)"/>
      </g>
     </g>
    </g>
    <g id="ytick_9">
     <g id="line2d_21">
      <path d="M 46.965625 78.982883
L 352.465625 78.982883
" clip-path="url(#p78dbe0da02)" style="fill: none; stroke: #d8dee4; stroke-width: 0.7; stroke-linecap: square"/>
     </g>
     <g id="line2d_22">
      <g>
       <use xlink:href="#m81624c9e47" x="46.965625" y="78.982883" style="fill: #57606a; stroke: #57606a; stroke-width: 0.8"/>
      </g>
     </g>
     <g id="text_13">
      <!-- 160 -->
      <g style="fill: #57606a" transform="translate(20.878125 82.782102) scale(0.1 -0.1)">
       <use xlink:href="#DejaVuSans-31"/>
       <use xlink:href="#DejaVuSans-36" transform="translate(63.623047 0)"/>
       <use xlink:href="#DejaVuSans-30" transform="translate(127.246094 0)"/>
      </g>
     </g>
    </g>
    <g id="text_14">
     <!-- Output tokens/s -->
     <g style="fill: #24292f" transform="translate(14.798437 223.145687) rotate(-90) scale(0.1 -0.1)">
      <defs>
       <path id="DejaVuSans-4f" d="M 2522 4238
Q 1834 4238 1429 3725
Q 1025 3213 1025 2328
Q 1025 1447 1429 934
Q 1834 422 2522 422
Q 3209 422 3611 934
Q 4013 1447 4013 2328
Q 4013 3213 3611 3725
Q 3209 4238 2522 4238
z
M 2522 4750
Q 3503 4750 4090 4092
Q 4678 3434 4678 2328
Q 4678 1225 4090 567
Q 3503 -91 2522 -91
Q 1538 -91 948 565
Q 359 1222 359 2328
Q 359 3434 948 4092
Q 1538 4750 2522 4750
z
" transform="scale(0.015625)"/>
       <path id="DejaVuSans-75" d="M 544 1381
L 544 3500
L 1119 3500
L 1119 1403
Q 1119 906 1312 657
Q 1506 409 1894 409
Q 2359 409 2629 706
Q 2900 1003 2900 1516
L 2900 3500
L 3475 3500
L 3475 0
L 2900 0
L 2900 538
Q 2691 219 2414 64
Q 2138 -91 1772 -91
Q 1169 -91 856 284
Q 544 659 544 1381
z
M 1991 3584
L 1991 3584
z
" transform="scale(0.015625)"/>
       <path id="DejaVuSans-70" d="M 1159 525
L 1159 -1331
L 581 -1331
L 581 3500
L 1159 3500
L 1159 2969
Q 1341 3281 1617 3432
Q 1894 3584 2278 3584
Q 2916 3584 3314 3078
Q 3713 2572 3713 1747
Q 3713 922 3314 415
Q 2916 -91 2278 -91
Q 1894 -91 1617 61
Q 1341 213 1159 525
z
M 3116 1747
Q 3116 2381 2855 2742
Q 2594 3103 2138 3103
Q 1681 3103 1420 2742
Q 1159 2381 1159 1747
Q 1159 1113 1420 752
Q 1681 391 2138 391
Q 2594 391 2855 752
Q 3116 1113 3116 1747
z
" transform="scale(0.015625)"/>
       <path id="DejaVuSans-20" transform="scale(0.015625)"/>
       <path id="DejaVuSans-6f" d="M 1959 3097
Q 1497 3097 1228 2736
Q 959 2375 959 1747
Q 959 1119 1226 758
Q 1494 397 1959 397
Q 2419 397 2687 759
Q 2956 1122 2956 1747
Q 2956 2369 2687 2733
Q 2419 3097 1959 3097
z
M 1959 3584
Q 2709 3584 3137 3096
Q 3566 2609 3566 1747
Q 3566 888 3137 398
Q 2709 -91 1959 -91
Q 1206 -91 779 398
Q 353 888 353 1747
Q 353 2609 779 3096
Q 1206 3584 1959 3584
z
" transform="scale(0.015625)"/>
       <path id="DejaVuSans-6b" d="M 581 4863
L 1159 4863
L 1159 1991
L 2875 3500
L 3609 3500
L 1753 1863
L 3688 0
L 2938 0
L 1159 1709
L 1159 0
L 581 0
L 581 4863
z
" transform="scale(0.015625)"/>
       <path id="DejaVuSans-6e" d="M 3513 2113
L 3513 0
L 2938 0
L 2938 2094
Q 2938 2591 2744 2837
Q 2550 3084 2163 3084
Q 1697 3084 1428 2787
Q 1159 2491 1159 1978
L 1159 0
L 581 0
L 581 3500
L 1159 3500
L 1159 2956
Q 1366 3272 1645 3428
Q 1925 3584 2291 3584
Q 2894 3584 3203 3211
Q 3513 2838 3513 2113
z
" transform="scale(0.015625)"/>
       <path id="DejaVuSans-73" d="M 2834 3397
L 2834 2853
Q 2591 2978 2328 3040
Q 2066 3103 1784 3103
Q 1356 3103 1142 2972
Q 928 2841 928 2578
Q 928 2378 1081 2264
Q 1234 2150 1697 2047
L 1894 2003
Q 2506 1872 2764 1633
Q 3022 1394 3022 966
Q 3022 478 2636 193
Q 2250 -91 1575 -91
Q 1294 -91 989 -36
Q 684 19 347 128
L 347 722
Q 666 556 975 473
Q 1284 391 1588 391
Q 1994 391 2212 530
Q 2431 669 2431 922
Q 2431 1156 2273 1281
Q 2116 1406 1581 1522
L 1381 1569
Q 847 1681 609 1914
Q 372 2147 372 2553
Q 372 3047 722 3315
Q 1072 3584 1716 3584
Q 2034 3584 2315 3537
Q 2597 3491 2834 3397
z
" transform="scale(0.015625)"/>
       <path id="DejaVuSans-2f" d="M 1625 4666
L 2156 4666
L 531 -594
L 0 -594
L 1625 4666
z
" transform="scale(0.015625)"/>
      </defs>
      <use xlink:href="#DejaVuSans-4f"/>
      <use xlink:href="#DejaVuSans-75" transform="translate(78.710938 0)"/>
      <use xlink:href="#DejaVuSans-74" transform="translate(142.089844 0)"/>
      <use xlink:href="#DejaVuSans-70" transform="translate(181.298828 0)"/>
      <use xlink:href="#DejaVuSans-75" transform="translate(244.775391 0)"/>
      <use xlink:href="#DejaVuSans-74" transform="translate(308.154297 0)"/>
      <use xlink:href="#DejaVuSans-20" transform="translate(347.363281 0)"/>
      <use xlink:href="#DejaVuSans-74" transform="translate(379.150391 0)"/>
      <use xlink:href="#DejaVuSans-6f" transform="translate(418.359375 0)"/>
      <use xlink:href="#DejaVuSans-6b" transform="translate(479.541016 0)"/>
      <use xlink:href="#DejaVuSans-65" transform="translate(533.826172 0)"/>
      <use xlink:href="#DejaVuSans-6e" transform="translate(595.349609 0)"/>
      <use xlink:href="#DejaVuSans-73" transform="translate(658.728516 0)"/>
      <use xlink:href="#DejaVuSans-2f" transform="translate(710.828125 0)"/>
      <use xlink:href="#DejaVuSans-73" transform="translate(744.519531 0)"/>
     </g>
    </g>
   </g>
   <g id="patch_3">
    <path d="M 60.851989 292.232
L 119.320888 292.232
L 119.320888 113.68118
L 60.851989 113.68118
z
" clip-path="url(#p78dbe0da02)" style="fill: #4472c4"/>
   </g>
   <g id="patch_4">
    <path d="M 133.938113 292.232
L 192.407013 292.232
L 192.407013 175.499434
L 133.938113 175.499434
z
" clip-path="url(#p78dbe0da02)" style="fill: #ed7d31"/>
   </g>
   <g id="patch_5">
    <path d="M 207.024237 292.232
L 265.493137 292.232
L 265.493137 175.532754
L 207.024237 175.532754
z
" clip-path="url(#p78dbe0da02)" style="fill: #ed7d31"/>
   </g>
   <g id="patch_6">
    <path d="M 280.110362 292.232
L 338.579261 292.232
L 338.579261 114.456874
L 280.110362 114.456874
z
" clip-path="url(#p78dbe0da02)" style="fill: #4472c4"/>
   </g>
   <g id="patch_7">
    <path d="M 46.965625 292.232
L 46.965625 74.4
" style="fill: none; stroke: #d0d7de; stroke-width: 0.8; stroke-linejoin: miter; stroke-linecap: square"/>
   </g>
   <g id="patch_8">
    <path d="M 46.965625 292.232
L 352.465625 292.232
" style="fill: none; stroke: #d0d7de; stroke-width: 0.8; stroke-linejoin: miter; stroke-linecap: square"/>
   </g>
   <g id="text_15">
    <!-- 134.0 -->
    <g transform="translate(78.635188 109.01743) scale(0.08 -0.08)">
     <defs>
      <path id="DejaVuSans-33" d="M 2597 2516
Q 3050 2419 3304 2112
Q 3559 1806 3559 1356
Q 3559 666 3084 287
Q 2609 -91 1734 -91
Q 1441 -91 1130 -33
Q 819 25 488 141
L 488 750
Q 750 597 1062 519
Q 1375 441 1716 441
Q 2309 441 2620 675
Q 2931 909 2931 1356
Q 2931 1769 2642 2001
Q 2353 2234 1838 2234
L 1294 2234
L 1294 2753
L 1863 2753
Q 2328 2753 2575 2939
Q 2822 3125 2822 3475
Q 2822 3834 2567 4026
Q 2313 4219 1838 4219
Q 1578 4219 1281 4162
Q 984 4106 628 3988
L 628 4550
Q 988 4650 1302 4700
Q 1616 4750 1894 4750
Q 2613 4750 3031 4423
Q 3450 4097 3450 3541
Q 3450 3153 3228 2886
Q 3006 2619 2597 2516
z
" transform="scale(0.015625)"/>
      <path id="DejaVuSans-2e" d="M 684 794
L 1344 794
L 1344 0
L 684 0
L 684 794
z
" transform="scale(0.015625)"/>
     </defs>
     <use xlink:href="#DejaVuSans-31"/>
     <use xlink:href="#DejaVuSans-33" transform="translate(63.623047 0)"/>
     <use xlink:href="#DejaVuSans-34" transform="translate(127.246094 0)"/>
     <use xlink:href="#DejaVuSans-2e" transform="translate(190.869141 0)"/>
     <use xlink:href="#DejaVuSans-30" transform="translate(222.65625 0)"/>
    </g>
   </g>
   <g id="text_16">
    <!-- 87.6 -->
    <g transform="translate(154.266313 170.835684) scale(0.08 -0.08)">
     <defs>
      <path id="DejaVuSans-37" d="M 525 4666
L 3525 4666
L 3525 4397
L 1831 0
L 1172 0
L 2766 4134
L 525 4134
L 525 4666
z
" transform="scale(0.015625)"/>
     </defs>
     <use xlink:href="#DejaVuSans-38"/>
     <use xlink:href="#DejaVuSans-37" transform="translate(63.623047 0)"/>
     <use xlink:href="#DejaVuSans-2e" transform="translate(127.246094 0)"/>
     <use xlink:href="#DejaVuSans-36" transform="translate(159.033203 0)"/>
    </g>
   </g>
   <g id="text_17">
    <!-- 87.6 -->
    <g transform="translate(227.352437 170.869004) scale(0.08 -0.08)">
     <use xlink:href="#DejaVuSans-38"/>
     <use xlink:href="#DejaVuSans-37" transform="translate(63.623047 0)"/>
     <use xlink:href="#DejaVuSans-2e" transform="translate(127.246094 0)"/>
     <use xlink:href="#DejaVuSans-36" transform="translate(159.033203 0)"/>
    </g>
   </g>
   <g id="text_18">
    <!-- 133.4 -->
    <g transform="translate(297.893562 109.793124) scale(0.08 -0.08)">
     <use xlink:href="#DejaVuSans-31"/>
     <use xlink:href="#DejaVuSans-33" transform="translate(63.623047 0)"/>
     <use xlink:href="#DejaVuSans-33" transform="translate(127.246094 0)"/>
     <use xlink:href="#DejaVuSans-2e" transform="translate(190.869141 0)"/>
     <use xlink:href="#DejaVuSans-34" transform="translate(222.65625 0)"/>
    </g>
   </g>
   <g id="text_19">
    <!-- Independent C64 -->
    <g style="fill: #24292f" transform="translate(146.687891 68.4) scale(0.11 -0.11)">
     <defs>
      <path id="DejaVuSans-Bold-49" d="M 588 4666
L 1791 4666
L 1791 0
L 588 0
L 588 4666
z
" transform="scale(0.015625)"/>
      <path id="DejaVuSans-Bold-6e" d="M 4056 2131
L 4056 0
L 2931 0
L 2931 347
L 2931 1631
Q 2931 2084 2911 2256
Q 2891 2428 2841 2509
Q 2775 2619 2662 2680
Q 2550 2741 2406 2741
Q 2056 2741 1856 2470
Q 1656 2200 1656 1722
L 1656 0
L 538 0
L 538 3500
L 1656 3500
L 1656 2988
Q 1909 3294 2193 3439
Q 2478 3584 2822 3584
Q 3428 3584 3742 3212
Q 4056 2841 4056 2131
z
" transform="scale(0.015625)"/>
      <path id="DejaVuSans-Bold-64" d="M 2919 2988
L 2919 4863
L 4044 4863
L 4044 0
L 2919 0
L 2919 506
Q 2688 197 2409 53
Q 2131 -91 1766 -91
Q 1119 -91 703 423
Q 288 938 288 1747
Q 288 2556 703 3070
Q 1119 3584 1766 3584
Q 2128 3584 2408 3439
Q 2688 3294 2919 2988
z
M 2181 722
Q 2541 722 2730 984
Q 2919 1247 2919 1747
Q 2919 2247 2730 2509
Q 2541 2772 2181 2772
Q 1825 2772 1636 2509
Q 1447 2247 1447 1747
Q 1447 1247 1636 984
Q 1825 722 2181 722
z
" transform="scale(0.015625)"/>
      <path id="DejaVuSans-Bold-65" d="M 4031 1759
L 4031 1441
L 1416 1441
Q 1456 1047 1700 850
Q 1944 653 2381 653
Q 2734 653 3104 758
Q 3475 863 3866 1075
L 3866 213
Q 3469 63 3072 -14
Q 2675 -91 2278 -91
Q 1328 -91 801 392
Q 275 875 275 1747
Q 275 2603 792 3093
Q 1309 3584 2216 3584
Q 3041 3584 3536 3087
Q 4031 2591 4031 1759
z
M 2881 2131
Q 2881 2450 2695 2645
Q 2509 2841 2209 2841
Q 1884 2841 1681 2658
Q 1478 2475 1428 2131
L 2881 2131
z
" transform="scale(0.015625)"/>
      <path id="DejaVuSans-Bold-70" d="M 1656 506
L 1656 -1331
L 538 -1331
L 538 3500
L 1656 3500
L 1656 2988
Q 1888 3294 2169 3439
Q 2450 3584 2816 3584
Q 3463 3584 3878 3070
Q 4294 2556 4294 1747
Q 4294 938 3878 423
Q 3463 -91 2816 -91
Q 2450 -91 2169 54
Q 1888 200 1656 506
z
M 2400 2772
Q 2041 2772 1848 2508
Q 1656 2244 1656 1747
Q 1656 1250 1848 986
Q 2041 722 2400 722
Q 2759 722 2948 984
Q 3138 1247 3138 1747
Q 3138 2247 2948 2509
Q 2759 2772 2400 2772
z
" transform="scale(0.015625)"/>
      <path id="DejaVuSans-Bold-74" d="M 1759 4494
L 1759 3500
L 2913 3500
L 2913 2700
L 1759 2700
L 1759 1216
Q 1759 972 1856 886
Q 1953 800 2241 800
L 2816 800
L 2816 0
L 1856 0
Q 1194 0 917 276
Q 641 553 641 1216
L 641 2700
L 84 2700
L 84 3500
L 641 3500
L 641 4494
L 1759 4494
z
" transform="scale(0.015625)"/>
      <path id="DejaVuSans-Bold-20" transform="scale(0.015625)"/>
      <path id="DejaVuSans-Bold-43" d="M 4288 256
Q 3956 84 3597 -3
Q 3238 -91 2847 -91
Q 1681 -91 1000 561
Q 319 1213 319 2328
Q 319 3447 1000 4098
Q 1681 4750 2847 4750
Q 3238 4750 3597 4662
Q 3956 4575 4288 4403
L 4288 3438
Q 3953 3666 3628 3772
Q 3303 3878 2944 3878
Q 2300 3878 1931 3465
Q 1563 3053 1563 2328
Q 1563 1606 1931 1193
Q 2300 781 2944 781
Q 3303 781 3628 887
Q 3953 994 4288 1222
L 4288 256
z
" transform="scale(0.015625)"/>
      <path id="DejaVuSans-Bold-36" d="M 2316 2303
Q 2000 2303 1842 2098
Q 1684 1894 1684 1484
Q 1684 1075 1842 870
Q 2000 666 2316 666
Q 2634 666 2792 870
Q 2950 1075 2950 1484
Q 2950 1894 2792 2098
Q 2634 2303 2316 2303
z
M 3803 4544
L 3803 3681
Q 3506 3822 3243 3889
Q 2981 3956 2731 3956
Q 2194 3956 1894 3657
Q 1594 3359 1544 2772
Q 1750 2925 1990 3001
Q 2231 3078 2516 3078
Q 3231 3078 3670 2659
Q 4109 2241 4109 1563
Q 4109 813 3618 361
Q 3128 -91 2303 -91
Q 1394 -91 895 523
Q 397 1138 397 2266
Q 397 3422 980 4083
Q 1563 4744 2578 4744
Q 2900 4744 3203 4694
Q 3506 4644 3803 4544
z
" transform="scale(0.015625)"/>
      <path id="DejaVuSans-Bold-34" d="M 2356 3675
L 1038 1722
L 2356 1722
L 2356 3675
z
M 2156 4666
L 3494 4666
L 3494 1722
L 4159 1722
L 4159 850
L 3494 850
L 3494 0
L 2356 0
L 2356 850
L 288 850
L 288 1881
L 2156 4666
z
" transform="scale(0.015625)"/>
     </defs>
     <use xlink:href="#DejaVuSans-Bold-49"/>
     <use xlink:href="#DejaVuSans-Bold-6e" transform="translate(37.207031 0)"/>
     <use xlink:href="#DejaVuSans-Bold-64" transform="translate(108.398438 0)"/>
     <use xlink:href="#DejaVuSans-Bold-65" transform="translate(179.980469 0)"/>
     <use xlink:href="#DejaVuSans-Bold-70" transform="translate(247.802734 0)"/>
     <use xlink:href="#DejaVuSans-Bold-65" transform="translate(319.384766 0)"/>
     <use xlink:href="#DejaVuSans-Bold-6e" transform="translate(387.207031 0)"/>
     <use xlink:href="#DejaVuSans-Bold-64" transform="translate(458.398438 0)"/>
     <use xlink:href="#DejaVuSans-Bold-65" transform="translate(529.980469 0)"/>
     <use xlink:href="#DejaVuSans-Bold-6e" transform="translate(597.802734 0)"/>
     <use xlink:href="#DejaVuSans-Bold-74" transform="translate(668.994141 0)"/>
     <use xlink:href="#DejaVuSans-Bold-20" transform="translate(716.796875 0)"/>
     <use xlink:href="#DejaVuSans-Bold-43" transform="translate(751.611328 0)"/>
     <use xlink:href="#DejaVuSans-Bold-36" transform="translate(825 0)"/>
     <use xlink:href="#DejaVuSans-Bold-34" transform="translate(894.580078 0)"/>
    </g>
   </g>
  </g>
  <g id="axes_2">
   <g id="patch_9">
    <path d="M 403.335625 292.232
L 708.835625 292.232
L 708.835625 74.4
L 403.335625 74.4
z
" style="fill: #ffffff"/>
   </g>
   <g id="matplotlib.axis_3">
    <g id="xtick_5">
     <g id="line2d_23">
      <g>
       <use xlink:href="#m7647d7d37d" x="446.456438" y="292.232" style="fill: #57606a; stroke: #57606a; stroke-width: 0.8"/>
      </g>
     </g>
     <g id="text_20">
      <!-- A1 -->
      <g style="fill: #57606a" transform="translate(439.854876 306.830437) scale(0.1 -0.1)">
       <use xlink:href="#DejaVuSans-41"/>
       <use xlink:href="#DejaVuSans-31" transform="translate(68.408203 0)"/>
      </g>
      <!-- Aggregate -->
      <g style="fill: #57606a" transform="translate(420.393157 318.02825) scale(0.1 -0.1)">
       <use xlink:href="#DejaVuSans-41"/>
       <use xlink:href="#DejaVuSans-67" transform="translate(68.408203 0)"/>
       <use xlink:href="#DejaVuSans-67" transform="translate(131.884766 0)"/>
       <use xlink:href="#DejaVuSans-72" transform="translate(195.361328 0)"/>
       <use xlink:href="#DejaVuSans-65" transform="translate(234.224609 0)"/>
       <use xlink:href="#DejaVuSans-67" transform="translate(295.748047 0)"/>
       <use xlink:href="#DejaVuSans-61" transform="translate(359.224609 0)"/>
       <use xlink:href="#DejaVuSans-74" transform="translate(420.503906 0)"/>
       <use xlink:href="#DejaVuSans-65" transform="translate(459.712891 0)"/>
      </g>
     </g>
    </g>
    <g id="xtick_6">
     <g id="line2d_24">
      <g>
       <use xlink:href="#m7647d7d37d" x="519.542563" y="292.232" style="fill: #57606a; stroke: #57606a; stroke-width: 0.8"/>
      </g>
     </g>
     <g id="text_21">
      <!-- A2 -->
      <g style="fill: #57606a" transform="translate(512.941 306.830437) scale(0.1 -0.1)">
       <use xlink:href="#DejaVuSans-41"/>
       <use xlink:href="#DejaVuSans-32" transform="translate(68.408203 0)"/>
      </g>
      <!-- 2P2D -->
      <g style="fill: #57606a" transform="translate(506.315219 318.02825) scale(0.1 -0.1)">
       <use xlink:href="#DejaVuSans-32"/>
       <use xlink:href="#DejaVuSans-50" transform="translate(63.623047 0)"/>
       <use xlink:href="#DejaVuSans-32" transform="translate(123.925781 0)"/>
       <use xlink:href="#DejaVuSans-44" transform="translate(187.548828 0)"/>
      </g>
     </g>
    </g>
    <g id="xtick_7">
     <g id="line2d_25">
      <g>
       <use xlink:href="#m7647d7d37d" x="592.628687" y="292.232" style="fill: #57606a; stroke: #57606a; stroke-width: 0.8"/>
      </g>
     </g>
     <g id="text_22">
      <!-- B1 -->
      <g style="fill: #57606a" transform="translate(586.016968 306.830437) scale(0.1 -0.1)">
       <use xlink:href="#DejaVuSans-42"/>
       <use xlink:href="#DejaVuSans-31" transform="translate(68.603516 0)"/>
      </g>
      <!-- 2P2D -->
      <g style="fill: #57606a" transform="translate(579.401343 318.02825) scale(0.1 -0.1)">
       <use xlink:href="#DejaVuSans-32"/>
       <use xlink:href="#DejaVuSans-50" transform="translate(63.623047 0)"/>
       <use xlink:href="#DejaVuSans-32" transform="translate(123.925781 0)"/>
       <use xlink:href="#DejaVuSans-44" transform="translate(187.548828 0)"/>
      </g>
     </g>
    </g>
    <g id="xtick_8">
     <g id="line2d_26">
      <g>
       <use xlink:href="#m7647d7d37d" x="665.714812" y="292.232" style="fill: #57606a; stroke: #57606a; stroke-width: 0.8"/>
      </g>
     </g>
     <g id="text_23">
      <!-- B2 -->
      <g style="fill: #57606a" transform="translate(659.103093 306.830437) scale(0.1 -0.1)">
       <use xlink:href="#DejaVuSans-42"/>
       <use xlink:href="#DejaVuSans-32" transform="translate(68.603516 0)"/>
      </g>
      <!-- Aggregate -->
      <g style="fill: #57606a" transform="translate(639.65153 318.02825) scale(0.1 -0.1)">
       <use xlink:href="#DejaVuSans-41"/>
       <use xlink:href="#DejaVuSans-67" transform="translate(68.408203 0)"/>
       <use xlink:href="#DejaVuSans-67" transform="translate(131.884766 0)"/>
       <use xlink:href="#DejaVuSans-72" transform="translate(195.361328 0)"/>
       <use xlink:href="#DejaVuSans-65" transform="translate(234.224609 0)"/>
       <use xlink:href="#DejaVuSans-67" transform="translate(295.748047 0)"/>
       <use xlink:href="#DejaVuSans-61" transform="translate(359.224609 0)"/>
       <use xlink:href="#DejaVuSans-74" transform="translate(420.503906 0)"/>
       <use xlink:href="#DejaVuSans-65" transform="translate(459.712891 0)"/>
      </g>
     </g>
    </g>
   </g>
   <g id="matplotlib.axis_4">
    <g id="ytick_10">
     <g id="line2d_27">
      <path d="M 403.335625 292.232
L 708.835625 292.232
" clip-path="url(#p577401d8ff)" style="fill: none; stroke: #d8dee4; stroke-width: 0.7; stroke-linecap: square"/>
     </g>
     <g id="line2d_28">
      <g>
       <use xlink:href="#m81624c9e47" x="403.335625" y="292.232" style="fill: #57606a; stroke: #57606a; stroke-width: 0.8"/>
      </g>
     </g>
     <g id="text_24">
      <!-- 0 -->
      <g style="fill: #57606a" transform="translate(389.973125 296.031219) scale(0.1 -0.1)">
       <use xlink:href="#DejaVuSans-30"/>
      </g>
     </g>
    </g>
    <g id="ytick_11">
     <g id="line2d_29">
      <path d="M 403.335625 262.352418
L 708.835625 262.352418
" clip-path="url(#p577401d8ff)" style="fill: none; stroke: #d8dee4; stroke-width: 0.7; stroke-linecap: square"/>
     </g>
     <g id="line2d_30">
      <g>
       <use xlink:href="#m81624c9e47" x="403.335625" y="262.352418" style="fill: #57606a; stroke: #57606a; stroke-width: 0.8"/>
      </g>
     </g>
     <g id="text_25">
      <!-- 25 -->
      <g style="fill: #57606a" transform="translate(383.610625 266.151637) scale(0.1 -0.1)">
       <defs>
        <path id="DejaVuSans-35" d="M 691 4666
L 3169 4666
L 3169 4134
L 1269 4134
L 1269 2991
Q 1406 3038 1543 3061
Q 1681 3084 1819 3084
Q 2600 3084 3056 2656
Q 3513 2228 3513 1497
Q 3513 744 3044 326
Q 2575 -91 1722 -91
Q 1428 -91 1123 -41
Q 819 9 494 109
L 494 744
Q 775 591 1075 516
Q 1375 441 1709 441
Q 2250 441 2565 725
Q 2881 1009 2881 1497
Q 2881 1984 2565 2268
Q 2250 2553 1709 2553
Q 1456 2553 1204 2497
Q 953 2441 691 2322
L 691 4666
z
" transform="scale(0.015625)"/>
       </defs>
       <use xlink:href="#DejaVuSans-32"/>
       <use xlink:href="#DejaVuSans-35" transform="translate(63.623047 0)"/>
      </g>
     </g>
    </g>
    <g id="ytick_12">
     <g id="line2d_31">
      <path d="M 403.335625 232.472836
L 708.835625 232.472836
" clip-path="url(#p577401d8ff)" style="fill: none; stroke: #d8dee4; stroke-width: 0.7; stroke-linecap: square"/>
     </g>
     <g id="line2d_32">
      <g>
       <use xlink:href="#m81624c9e47" x="403.335625" y="232.472836" style="fill: #57606a; stroke: #57606a; stroke-width: 0.8"/>
      </g>
     </g>
     <g id="text_26">
      <!-- 50 -->
      <g style="fill: #57606a" transform="translate(383.610625 236.272055) scale(0.1 -0.1)">
       <use xlink:href="#DejaVuSans-35"/>
       <use xlink:href="#DejaVuSans-30" transform="translate(63.623047 0)"/>
      </g>
     </g>
    </g>
    <g id="ytick_13">
     <g id="line2d_33">
      <path d="M 403.335625 202.593254
L 708.835625 202.593254
" clip-path="url(#p577401d8ff)" style="fill: none; stroke: #d8dee4; stroke-width: 0.7; stroke-linecap: square"/>
     </g>
     <g id="line2d_34">
      <g>
       <use xlink:href="#m81624c9e47" x="403.335625" y="202.593254" style="fill: #57606a; stroke: #57606a; stroke-width: 0.8"/>
      </g>
     </g>
     <g id="text_27">
      <!-- 75 -->
      <g style="fill: #57606a" transform="translate(383.610625 206.392473) scale(0.1 -0.1)">
       <use xlink:href="#DejaVuSans-37"/>
       <use xlink:href="#DejaVuSans-35" transform="translate(63.623047 0)"/>
      </g>
     </g>
    </g>
    <g id="ytick_14">
     <g id="line2d_35">
      <path d="M 403.335625 172.713673
L 708.835625 172.713673
" clip-path="url(#p577401d8ff)" style="fill: none; stroke: #d8dee4; stroke-width: 0.7; stroke-linecap: square"/>
     </g>
     <g id="line2d_36">
      <g>
       <use xlink:href="#m81624c9e47" x="403.335625" y="172.713673" style="fill: #57606a; stroke: #57606a; stroke-width: 0.8"/>
      </g>
     </g>
     <g id="text_28">
      <!-- 100 -->
      <g style="fill: #57606a" transform="translate(377.248125 176.512891) scale(0.1 -0.1)">
       <use xlink:href="#DejaVuSans-31"/>
       <use xlink:href="#DejaVuSans-30" transform="translate(63.623047 0)"/>
       <use xlink:href="#DejaVuSans-30" transform="translate(127.246094 0)"/>
      </g>
     </g>
    </g>
    <g id="ytick_15">
     <g id="line2d_37">
      <path d="M 403.335625 142.834091
L 708.835625 142.834091
" clip-path="url(#p577401d8ff)" style="fill: none; stroke: #d8dee4; stroke-width: 0.7; stroke-linecap: square"/>
     </g>
     <g id="line2d_38">
      <g>
       <use xlink:href="#m81624c9e47" x="403.335625" y="142.834091" style="fill: #57606a; stroke: #57606a; stroke-width: 0.8"/>
      </g>
     </g>
     <g id="text_29">
      <!-- 125 -->
      <g style="fill: #57606a" transform="translate(377.248125 146.633309) scale(0.1 -0.1)">
       <use xlink:href="#DejaVuSans-31"/>
       <use xlink:href="#DejaVuSans-32" transform="translate(63.623047 0)"/>
       <use xlink:href="#DejaVuSans-35" transform="translate(127.246094 0)"/>
      </g>
     </g>
    </g>
    <g id="ytick_16">
     <g id="line2d_39">
      <path d="M 403.335625 112.954509
L 708.835625 112.954509
" clip-path="url(#p577401d8ff)" style="fill: none; stroke: #d8dee4; stroke-width: 0.7; stroke-linecap: square"/>
     </g>
     <g id="line2d_40">
      <g>
       <use xlink:href="#m81624c9e47" x="403.335625" y="112.954509" style="fill: #57606a; stroke: #57606a; stroke-width: 0.8"/>
      </g>
     </g>
     <g id="text_30">
      <!-- 150 -->
      <g style="fill: #57606a" transform="translate(377.248125 116.753728) scale(0.1 -0.1)">
       <use xlink:href="#DejaVuSans-31"/>
       <use xlink:href="#DejaVuSans-35" transform="translate(63.623047 0)"/>
       <use xlink:href="#DejaVuSans-30" transform="translate(127.246094 0)"/>
      </g>
     </g>
    </g>
    <g id="ytick_17">
     <g id="line2d_41">
      <path d="M 403.335625 83.074927
L 708.835625 83.074927
" clip-path="url(#p577401d8ff)" style="fill: none; stroke: #d8dee4; stroke-width: 0.7; stroke-linecap: square"/>
     </g>
     <g id="line2d_42">
      <g>
       <use xlink:href="#m81624c9e47" x="403.335625" y="83.074927" style="fill: #57606a; stroke: #57606a; stroke-width: 0.8"/>
      </g>
     </g>
     <g id="text_31">
      <!-- 175 -->
      <g style="fill: #57606a" transform="translate(377.248125 86.874146) scale(0.1 -0.1)">
       <use xlink:href="#DejaVuSans-31"/>
       <use xlink:href="#DejaVuSans-37" transform="translate(63.623047 0)"/>
       <use xlink:href="#DejaVuSans-35" transform="translate(127.246094 0)"/>
      </g>
     </g>
    </g>
    <g id="text_32">
     <!-- Output tokens/s -->
     <g style="fill: #24292f" transform="translate(371.168438 223.145687) rotate(-90) scale(0.1 -0.1)">
      <use xlink:href="#DejaVuSans-4f"/>
      <use xlink:href="#DejaVuSans-75" transform="translate(78.710938 0)"/>
      <use xlink:href="#DejaVuSans-74" transform="translate(142.089844 0)"/>
      <use xlink:href="#DejaVuSans-70" transform="translate(181.298828 0)"/>
      <use xlink:href="#DejaVuSans-75" transform="translate(244.775391 0)"/>
      <use xlink:href="#DejaVuSans-74" transform="translate(308.154297 0)"/>
      <use xlink:href="#DejaVuSans-20" transform="translate(347.363281 0)"/>
      <use xlink:href="#DejaVuSans-74" transform="translate(379.150391 0)"/>
      <use xlink:href="#DejaVuSans-6f" transform="translate(418.359375 0)"/>
      <use xlink:href="#DejaVuSans-6b" transform="translate(479.541016 0)"/>
      <use xlink:href="#DejaVuSans-65" transform="translate(533.826172 0)"/>
      <use xlink:href="#DejaVuSans-6e" transform="translate(595.349609 0)"/>
      <use xlink:href="#DejaVuSans-73" transform="translate(658.728516 0)"/>
      <use xlink:href="#DejaVuSans-2f" transform="translate(710.828125 0)"/>
      <use xlink:href="#DejaVuSans-73" transform="translate(744.519531 0)"/>
     </g>
    </g>
   </g>
   <g id="patch_10">
    <path d="M 417.221989 292.232
L 475.690888 292.232
L 475.690888 131.38304
L 417.221989 131.38304
z
" clip-path="url(#p577401d8ff)" style="fill: #4472c4"/>
   </g>
   <g id="patch_11">
    <path d="M 490.308113 292.232
L 548.777013 292.232
L 548.777013 125.674844
L 490.308113 125.674844
z
" clip-path="url(#p577401d8ff)" style="fill: #ed7d31"/>
   </g>
   <g id="patch_12">
    <path d="M 563.394237 292.232
L 621.863137 292.232
L 621.863137 135.732312
L 563.394237 135.732312
z
" clip-path="url(#p577401d8ff)" style="fill: #ed7d31"/>
   </g>
   <g id="patch_13">
    <path d="M 636.480362 292.232
L 694.949261 292.232
L 694.949261 113.68118
L 636.480362 113.68118
z
" clip-path="url(#p577401d8ff)" style="fill: #4472c4"/>
   </g>
   <g id="patch_14">
    <path d="M 403.335625 292.232
L 403.335625 74.4
" style="fill: none; stroke: #d0d7de; stroke-width: 0.8; stroke-linejoin: miter; stroke-linecap: square"/>
   </g>
   <g id="patch_15">
    <path d="M 403.335625 292.232
L 708.835625 292.232
" style="fill: none; stroke: #d0d7de; stroke-width: 0.8; stroke-linejoin: miter; stroke-linecap: square"/>
   </g>
   <g id="text_33">
    <!-- 134.6 -->
    <g transform="translate(435.005188 126.71929) scale(0.08 -0.08)">
     <use xlink:href="#DejaVuSans-31"/>
     <use xlink:href="#DejaVuSans-33" transform="translate(63.623047 0)"/>
     <use xlink:href="#DejaVuSans-34" transform="translate(127.246094 0)"/>
     <use xlink:href="#DejaVuSans-2e" transform="translate(190.869141 0)"/>
     <use xlink:href="#DejaVuSans-36" transform="translate(222.65625 0)"/>
    </g>
   </g>
   <g id="text_34">
    <!-- 139.4 -->
    <g transform="translate(508.091313 121.011094) scale(0.08 -0.08)">
     <defs>
      <path id="DejaVuSans-39" d="M 703 97
L 703 672
Q 941 559 1184 500
Q 1428 441 1663 441
Q 2288 441 2617 861
Q 2947 1281 2994 2138
Q 2813 1869 2534 1725
Q 2256 1581 1919 1581
Q 1219 1581 811 2004
Q 403 2428 403 3163
Q 403 3881 828 4315
Q 1253 4750 1959 4750
Q 2769 4750 3195 4129
Q 3622 3509 3622 2328
Q 3622 1225 3098 567
Q 2575 -91 1691 -91
Q 1453 -91 1209 -44
Q 966 3 703 97
z
M 1959 2075
Q 2384 2075 2632 2365
Q 2881 2656 2881 3163
Q 2881 3666 2632 3958
Q 2384 4250 1959 4250
Q 1534 4250 1286 3958
Q 1038 3666 1038 3163
Q 1038 2656 1286 2365
Q 1534 2075 1959 2075
z
" transform="scale(0.015625)"/>
     </defs>
     <use xlink:href="#DejaVuSans-31"/>
     <use xlink:href="#DejaVuSans-33" transform="translate(63.623047 0)"/>
     <use xlink:href="#DejaVuSans-39" transform="translate(127.246094 0)"/>
     <use xlink:href="#DejaVuSans-2e" transform="translate(190.869141 0)"/>
     <use xlink:href="#DejaVuSans-34" transform="translate(222.65625 0)"/>
    </g>
   </g>
   <g id="text_35">
    <!-- 130.9 -->
    <g transform="translate(581.177437 131.068562) scale(0.08 -0.08)">
     <use xlink:href="#DejaVuSans-31"/>
     <use xlink:href="#DejaVuSans-33" transform="translate(63.623047 0)"/>
     <use xlink:href="#DejaVuSans-30" transform="translate(127.246094 0)"/>
     <use xlink:href="#DejaVuSans-2e" transform="translate(190.869141 0)"/>
     <use xlink:href="#DejaVuSans-39" transform="translate(222.65625 0)"/>
    </g>
   </g>
   <g id="text_36">
    <!-- 149.4 -->
    <g transform="translate(654.263562 109.01743) scale(0.08 -0.08)">
     <use xlink:href="#DejaVuSans-31"/>
     <use xlink:href="#DejaVuSans-34" transform="translate(63.623047 0)"/>
     <use xlink:href="#DejaVuSans-39" transform="translate(127.246094 0)"/>
     <use xlink:href="#DejaVuSans-2e" transform="translate(190.869141 0)"/>
     <use xlink:href="#DejaVuSans-34" transform="translate(222.65625 0)"/>
    </g>
   </g>
   <g id="text_37">
    <!-- Shared-prefix W2 -->
    <g style="fill: #24292f" transform="translate(501.822969 68.4) scale(0.11 -0.11)">
     <defs>
      <path id="DejaVuSans-Bold-53" d="M 3834 4519
L 3834 3531
Q 3450 3703 3084 3790
Q 2719 3878 2394 3878
Q 1963 3878 1756 3759
Q 1550 3641 1550 3391
Q 1550 3203 1689 3098
Q 1828 2994 2194 2919
L 2706 2816
Q 3484 2659 3812 2340
Q 4141 2022 4141 1434
Q 4141 663 3683 286
Q 3225 -91 2284 -91
Q 1841 -91 1394 -6
Q 947 78 500 244
L 500 1259
Q 947 1022 1364 901
Q 1781 781 2169 781
Q 2563 781 2772 912
Q 2981 1044 2981 1288
Q 2981 1506 2839 1625
Q 2697 1744 2272 1838
L 1806 1941
Q 1106 2091 782 2419
Q 459 2747 459 3303
Q 459 4000 909 4375
Q 1359 4750 2203 4750
Q 2588 4750 2994 4692
Q 3400 4634 3834 4519
z
" transform="scale(0.015625)"/>
      <path id="DejaVuSans-Bold-68" d="M 4056 2131
L 4056 0
L 2931 0
L 2931 347
L 2931 1625
Q 2931 2084 2911 2256
Q 2891 2428 2841 2509
Q 2775 2619 2662 2680
Q 2550 2741 2406 2741
Q 2056 2741 1856 2470
Q 1656 2200 1656 1722
L 1656 0
L 538 0
L 538 4863
L 1656 4863
L 1656 2988
Q 1909 3294 2193 3439
Q 2478 3584 2822 3584
Q 3428 3584 3742 3212
Q 4056 2841 4056 2131
z
" transform="scale(0.015625)"/>
      <path id="DejaVuSans-Bold-61" d="M 2106 1575
Q 1756 1575 1579 1456
Q 1403 1338 1403 1106
Q 1403 894 1545 773
Q 1688 653 1941 653
Q 2256 653 2472 879
Q 2688 1106 2688 1447
L 2688 1575
L 2106 1575
z
M 3816 1997
L 3816 0
L 2688 0
L 2688 519
Q 2463 200 2181 54
Q 1900 -91 1497 -91
Q 953 -91 614 226
Q 275 544 275 1050
Q 275 1666 698 1953
Q 1122 2241 2028 2241
L 2688 2241
L 2688 2328
Q 2688 2594 2478 2717
Q 2269 2841 1825 2841
Q 1466 2841 1156 2769
Q 847 2697 581 2553
L 581 3406
Q 941 3494 1303 3539
Q 1666 3584 2028 3584
Q 2975 3584 3395 3211
Q 3816 2838 3816 1997
z
" transform="scale(0.015625)"/>
      <path id="DejaVuSans-Bold-72" d="M 3138 2547
Q 2991 2616 2845 2648
Q 2700 2681 2553 2681
Q 2122 2681 1889 2404
Q 1656 2128 1656 1613
L 1656 0
L 538 0
L 538 3500
L 1656 3500
L 1656 2925
Q 1872 3269 2151 3426
Q 2431 3584 2822 3584
Q 2878 3584 2943 3579
Q 3009 3575 3134 3559
L 3138 2547
z
" transform="scale(0.015625)"/>
      <path id="DejaVuSans-Bold-2d" d="M 347 2297
L 2309 2297
L 2309 1388
L 347 1388
L 347 2297
z
" transform="scale(0.015625)"/>
      <path id="DejaVuSans-Bold-66" d="M 2841 4863
L 2841 4128
L 2222 4128
Q 1984 4128 1890 4042
Q 1797 3956 1797 3744
L 1797 3500
L 2753 3500
L 2753 2700
L 1797 2700
L 1797 0
L 678 0
L 678 2700
L 122 2700
L 122 3500
L 678 3500
L 678 3744
Q 678 4316 997 4589
Q 1316 4863 1984 4863
L 2841 4863
z
" transform="scale(0.015625)"/>
      <path id="DejaVuSans-Bold-69" d="M 538 3500
L 1656 3500
L 1656 0
L 538 0
L 538 3500
z
M 538 4863
L 1656 4863
L 1656 3950
L 538 3950
L 538 4863
z
" transform="scale(0.015625)"/>
      <path id="DejaVuSans-Bold-78" d="M 1422 1791
L 159 3500
L 1344 3500
L 2059 2463
L 2784 3500
L 3969 3500
L 2706 1797
L 4031 0
L 2847 0
L 2059 1106
L 1281 0
L 97 0
L 1422 1791
z
" transform="scale(0.015625)"/>
      <path id="DejaVuSans-Bold-57" d="M 191 4666
L 1344 4666
L 2150 1275
L 2950 4666
L 4109 4666
L 4909 1275
L 5716 4666
L 6859 4666
L 5759 0
L 4372 0
L 3525 3547
L 2688 0
L 1300 0
L 191 4666
z
" transform="scale(0.015625)"/>
      <path id="DejaVuSans-Bold-32" d="M 1844 884
L 3897 884
L 3897 0
L 506 0
L 506 884
L 2209 2388
Q 2438 2594 2547 2791
Q 2656 2988 2656 3200
Q 2656 3528 2436 3728
Q 2216 3928 1850 3928
Q 1569 3928 1234 3808
Q 900 3688 519 3450
L 519 4475
Q 925 4609 1322 4679
Q 1719 4750 2100 4750
Q 2938 4750 3402 4381
Q 3866 4013 3866 3353
Q 3866 2972 3669 2642
Q 3472 2313 2841 1759
L 1844 884
z
" transform="scale(0.015625)"/>
     </defs>
     <use xlink:href="#DejaVuSans-Bold-53"/>
     <use xlink:href="#DejaVuSans-Bold-68" transform="translate(72.021484 0)"/>
     <use xlink:href="#DejaVuSans-Bold-61" transform="translate(143.212891 0)"/>
     <use xlink:href="#DejaVuSans-Bold-72" transform="translate(210.693359 0)"/>
     <use xlink:href="#DejaVuSans-Bold-65" transform="translate(260.009766 0)"/>
     <use xlink:href="#DejaVuSans-Bold-64" transform="translate(327.832031 0)"/>
     <use xlink:href="#DejaVuSans-Bold-2d" transform="translate(399.414062 0)"/>
     <use xlink:href="#DejaVuSans-Bold-70" transform="translate(440.917969 0)"/>
     <use xlink:href="#DejaVuSans-Bold-72" transform="translate(512.5 0)"/>
     <use xlink:href="#DejaVuSans-Bold-65" transform="translate(561.816406 0)"/>
     <use xlink:href="#DejaVuSans-Bold-66" transform="translate(629.638672 0)"/>
     <use xlink:href="#DejaVuSans-Bold-69" transform="translate(673.144531 0)"/>
     <use xlink:href="#DejaVuSans-Bold-78" transform="translate(707.421875 0)"/>
     <use xlink:href="#DejaVuSans-Bold-20" transform="translate(771.923828 0)"/>
     <use xlink:href="#DejaVuSans-Bold-57" transform="translate(806.738281 0)"/>
     <use xlink:href="#DejaVuSans-Bold-32" transform="translate(917.041016 0)"/>
    </g>
   </g>
  </g>
  <g id="axes_3">
   <g id="patch_16">
    <path d="M 759.705625 292.232
L 1065.205625 292.232
L 1065.205625 74.4
L 759.705625 74.4
z
" style="fill: #ffffff"/>
   </g>
   <g id="matplotlib.axis_5">
    <g id="xtick_9">
     <g id="line2d_43">
      <g>
       <use xlink:href="#m7647d7d37d" x="802.826438" y="292.232" style="fill: #57606a; stroke: #57606a; stroke-width: 0.8"/>
      </g>
     </g>
     <g id="text_38">
      <!-- A1 -->
      <g style="fill: #57606a" transform="translate(796.224876 306.830437) scale(0.1 -0.1)">
       <use xlink:href="#DejaVuSans-41"/>
       <use xlink:href="#DejaVuSans-31" transform="translate(68.408203 0)"/>
      </g>
      <!-- Aggregate -->
      <g style="fill: #57606a" transform="translate(776.763157 318.02825) scale(0.1 -0.1)">
       <use xlink:href="#DejaVuSans-41"/>
       <use xlink:href="#DejaVuSans-67" transform="translate(68.408203 0)"/>
       <use xlink:href="#DejaVuSans-67" transform="translate(131.884766 0)"/>
       <use xlink:href="#DejaVuSans-72" transform="translate(195.361328 0)"/>
       <use xlink:href="#DejaVuSans-65" transform="translate(234.224609 0)"/>
       <use xlink:href="#DejaVuSans-67" transform="translate(295.748047 0)"/>
       <use xlink:href="#DejaVuSans-61" transform="translate(359.224609 0)"/>
       <use xlink:href="#DejaVuSans-74" transform="translate(420.503906 0)"/>
       <use xlink:href="#DejaVuSans-65" transform="translate(459.712891 0)"/>
      </g>
     </g>
    </g>
    <g id="xtick_10">
     <g id="line2d_44">
      <g>
       <use xlink:href="#m7647d7d37d" x="875.912563" y="292.232" style="fill: #57606a; stroke: #57606a; stroke-width: 0.8"/>
      </g>
     </g>
     <g id="text_39">
      <!-- A2 -->
      <g style="fill: #57606a" transform="translate(869.311 306.830437) scale(0.1 -0.1)">
       <use xlink:href="#DejaVuSans-41"/>
       <use xlink:href="#DejaVuSans-32" transform="translate(68.408203 0)"/>
      </g>
      <!-- 2P2D -->
      <g style="fill: #57606a" transform="translate(862.685219 318.02825) scale(0.1 -0.1)">
       <use xlink:href="#DejaVuSans-32"/>
       <use xlink:href="#DejaVuSans-50" transform="translate(63.623047 0)"/>
       <use xlink:href="#DejaVuSans-32" transform="translate(123.925781 0)"/>
       <use xlink:href="#DejaVuSans-44" transform="translate(187.548828 0)"/>
      </g>
     </g>
    </g>
    <g id="xtick_11">
     <g id="line2d_45">
      <g>
       <use xlink:href="#m7647d7d37d" x="948.998687" y="292.232" style="fill: #57606a; stroke: #57606a; stroke-width: 0.8"/>
      </g>
     </g>
     <g id="text_40">
      <!-- B1 -->
      <g style="fill: #57606a" transform="translate(942.386968 306.830437) scale(0.1 -0.1)">
       <use xlink:href="#DejaVuSans-42"/>
       <use xlink:href="#DejaVuSans-31" transform="translate(68.603516 0)"/>
      </g>
      <!-- 2P2D -->
      <g style="fill: #57606a" transform="translate(935.771343 318.02825) scale(0.1 -0.1)">
       <use xlink:href="#DejaVuSans-32"/>
       <use xlink:href="#DejaVuSans-50" transform="translate(63.623047 0)"/>
       <use xlink:href="#DejaVuSans-32" transform="translate(123.925781 0)"/>
       <use xlink:href="#DejaVuSans-44" transform="translate(187.548828 0)"/>
      </g>
     </g>
    </g>
    <g id="xtick_12">
     <g id="line2d_46">
      <g>
       <use xlink:href="#m7647d7d37d" x="1022.084812" y="292.232" style="fill: #57606a; stroke: #57606a; stroke-width: 0.8"/>
      </g>
     </g>
     <g id="text_41">
      <!-- B2 -->
      <g style="fill: #57606a" transform="translate(1015.473093 306.830437) scale(0.1 -0.1)">
       <use xlink:href="#DejaVuSans-42"/>
       <use xlink:href="#DejaVuSans-32" transform="translate(68.603516 0)"/>
      </g>
      <!-- Aggregate -->
      <g style="fill: #57606a" transform="translate(996.02153 318.02825) scale(0.1 -0.1)">
       <use xlink:href="#DejaVuSans-41"/>
       <use xlink:href="#DejaVuSans-67" transform="translate(68.408203 0)"/>
       <use xlink:href="#DejaVuSans-67" transform="translate(131.884766 0)"/>
       <use xlink:href="#DejaVuSans-72" transform="translate(195.361328 0)"/>
       <use xlink:href="#DejaVuSans-65" transform="translate(234.224609 0)"/>
       <use xlink:href="#DejaVuSans-67" transform="translate(295.748047 0)"/>
       <use xlink:href="#DejaVuSans-61" transform="translate(359.224609 0)"/>
       <use xlink:href="#DejaVuSans-74" transform="translate(420.503906 0)"/>
       <use xlink:href="#DejaVuSans-65" transform="translate(459.712891 0)"/>
      </g>
     </g>
    </g>
   </g>
   <g id="matplotlib.axis_6">
    <g id="ytick_18">
     <g id="line2d_47">
      <path d="M 759.705625 292.232
L 1065.205625 292.232
" clip-path="url(#p331defa11b)" style="fill: none; stroke: #d8dee4; stroke-width: 0.7; stroke-linecap: square"/>
     </g>
     <g id="line2d_48">
      <g>
       <use xlink:href="#m81624c9e47" x="759.705625" y="292.232" style="fill: #57606a; stroke: #57606a; stroke-width: 0.8"/>
      </g>
     </g>
     <g id="text_42">
      <!-- 0 -->
      <g style="fill: #57606a" transform="translate(746.343125 296.031219) scale(0.1 -0.1)">
       <use xlink:href="#DejaVuSans-30"/>
      </g>
     </g>
    </g>
    <g id="ytick_19">
     <g id="line2d_49">
      <path d="M 759.705625 248.129043
L 1065.205625 248.129043
" clip-path="url(#p331defa11b)" style="fill: none; stroke: #d8dee4; stroke-width: 0.7; stroke-linecap: square"/>
     </g>
     <g id="line2d_50">
      <g>
       <use xlink:href="#m81624c9e47" x="759.705625" y="248.129043" style="fill: #57606a; stroke: #57606a; stroke-width: 0.8"/>
      </g>
     </g>
     <g id="text_43">
      <!-- 10 -->
      <g style="fill: #57606a" transform="translate(739.980625 251.928262) scale(0.1 -0.1)">
       <use xlink:href="#DejaVuSans-31"/>
       <use xlink:href="#DejaVuSans-30" transform="translate(63.623047 0)"/>
      </g>
     </g>
    </g>
    <g id="ytick_20">
     <g id="line2d_51">
      <path d="M 759.705625 204.026087
L 1065.205625 204.026087
" clip-path="url(#p331defa11b)" style="fill: none; stroke: #d8dee4; stroke-width: 0.7; stroke-linecap: square"/>
     </g>
     <g id="line2d_52">
      <g>
       <use xlink:href="#m81624c9e47" x="759.705625" y="204.026087" style="fill: #57606a; stroke: #57606a; stroke-width: 0.8"/>
      </g>
     </g>
     <g id="text_44">
      <!-- 20 -->
      <g style="fill: #57606a" transform="translate(739.980625 207.825306) scale(0.1 -0.1)">
       <use xlink:href="#DejaVuSans-32"/>
       <use xlink:href="#DejaVuSans-30" transform="translate(63.623047 0)"/>
      </g>
     </g>
    </g>
    <g id="ytick_21">
     <g id="line2d_53">
      <path d="M 759.705625 159.92313
L 1065.205625 159.92313
" clip-path="url(#p331defa11b)" style="fill: none; stroke: #d8dee4; stroke-width: 0.7; stroke-linecap: square"/>
     </g>
     <g id="line2d_54">
      <g>
       <use xlink:href="#m81624c9e47" x="759.705625" y="159.92313" style="fill: #57606a; stroke: #57606a; stroke-width: 0.8"/>
      </g>
     </g>
     <g id="text_45">
      <!-- 30 -->
      <g style="fill: #57606a" transform="translate(739.980625 163.722349) scale(0.1 -0.1)">
       <use xlink:href="#DejaVuSans-33"/>
       <use xlink:href="#DejaVuSans-30" transform="translate(63.623047 0)"/>
      </g>
     </g>
    </g>
    <g id="ytick_22">
     <g id="line2d_55">
      <path d="M 759.705625 115.820174
L 1065.205625 115.820174
" clip-path="url(#p331defa11b)" style="fill: none; stroke: #d8dee4; stroke-width: 0.7; stroke-linecap: square"/>
     </g>
     <g id="line2d_56">
      <g>
       <use xlink:href="#m81624c9e47" x="759.705625" y="115.820174" style="fill: #57606a; stroke: #57606a; stroke-width: 0.8"/>
      </g>
     </g>
     <g id="text_46">
      <!-- 40 -->
      <g style="fill: #57606a" transform="translate(739.980625 119.619392) scale(0.1 -0.1)">
       <use xlink:href="#DejaVuSans-34"/>
       <use xlink:href="#DejaVuSans-30" transform="translate(63.623047 0)"/>
      </g>
     </g>
    </g>
    <g id="text_47">
     <!-- Output tokens/s -->
     <g style="fill: #24292f" transform="translate(733.900938 223.145687) rotate(-90) scale(0.1 -0.1)">
      <use xlink:href="#DejaVuSans-4f"/>
      <use xlink:href="#DejaVuSans-75" transform="translate(78.710938 0)"/>
      <use xlink:href="#DejaVuSans-74" transform="translate(142.089844 0)"/>
      <use xlink:href="#DejaVuSans-70" transform="translate(181.298828 0)"/>
      <use xlink:href="#DejaVuSans-75" transform="translate(244.775391 0)"/>
      <use xlink:href="#DejaVuSans-74" transform="translate(308.154297 0)"/>
      <use xlink:href="#DejaVuSans-20" transform="translate(347.363281 0)"/>
      <use xlink:href="#DejaVuSans-74" transform="translate(379.150391 0)"/>
      <use xlink:href="#DejaVuSans-6f" transform="translate(418.359375 0)"/>
      <use xlink:href="#DejaVuSans-6b" transform="translate(479.541016 0)"/>
      <use xlink:href="#DejaVuSans-65" transform="translate(533.826172 0)"/>
      <use xlink:href="#DejaVuSans-6e" transform="translate(595.349609 0)"/>
      <use xlink:href="#DejaVuSans-73" transform="translate(658.728516 0)"/>
      <use xlink:href="#DejaVuSans-2f" transform="translate(710.828125 0)"/>
      <use xlink:href="#DejaVuSans-73" transform="translate(744.519531 0)"/>
     </g>
    </g>
   </g>
   <g id="patch_17">
    <path d="M 773.591989 292.232
L 832.060888 292.232
L 832.060888 113.68118
L 773.591989 113.68118
z
" clip-path="url(#p331defa11b)" style="fill: #4472c4"/>
   </g>
   <g id="patch_18">
    <path d="M 846.678113 292.232
L 905.147013 292.232
L 905.147013 113.756155
L 846.678113 113.756155
z
" clip-path="url(#p331defa11b)" style="fill: #ed7d31"/>
   </g>
   <g id="patch_19">
    <path d="M 919.764237 292.232
L 978.233137 292.232
L 978.233137 113.712052
L 919.764237 113.712052
z
" clip-path="url(#p331defa11b)" style="fill: #ed7d31"/>
   </g>
   <g id="patch_20">
    <path d="M 992.850362 292.232
L 1051.319261 292.232
L 1051.319261 113.729694
L 992.850362 113.729694
z
" clip-path="url(#p331defa11b)" style="fill: #4472c4"/>
   </g>
   <g id="patch_21">
    <path d="M 759.705625 292.232
L 759.705625 74.4
" style="fill: none; stroke: #d0d7de; stroke-width: 0.8; stroke-linejoin: miter; stroke-linecap: square"/>
   </g>
   <g id="patch_22">
    <path d="M 759.705625 292.232
L 1065.205625 292.232
" style="fill: none; stroke: #d0d7de; stroke-width: 0.8; stroke-linejoin: miter; stroke-linecap: square"/>
   </g>
   <g id="text_48">
    <!-- 40.5 -->
    <g transform="translate(793.920188 109.01743) scale(0.08 -0.08)">
     <use xlink:href="#DejaVuSans-34"/>
     <use xlink:href="#DejaVuSans-30" transform="translate(63.623047 0)"/>
     <use xlink:href="#DejaVuSans-2e" transform="translate(127.246094 0)"/>
     <use xlink:href="#DejaVuSans-35" transform="translate(159.033203 0)"/>
    </g>
   </g>
   <g id="text_49">
    <!-- 40.5 -->
    <g transform="translate(867.006313 109.092405) scale(0.08 -0.08)">
     <use xlink:href="#DejaVuSans-34"/>
     <use xlink:href="#DejaVuSans-30" transform="translate(63.623047 0)"/>
     <use xlink:href="#DejaVuSans-2e" transform="translate(127.246094 0)"/>
     <use xlink:href="#DejaVuSans-35" transform="translate(159.033203 0)"/>
    </g>
   </g>
   <g id="text_50">
    <!-- 40.5 -->
    <g transform="translate(940.092437 109.048302) scale(0.08 -0.08)">
     <use xlink:href="#DejaVuSans-34"/>
     <use xlink:href="#DejaVuSans-30" transform="translate(63.623047 0)"/>
     <use xlink:href="#DejaVuSans-2e" transform="translate(127.246094 0)"/>
     <use xlink:href="#DejaVuSans-35" transform="translate(159.033203 0)"/>
    </g>
   </g>
   <g id="text_51">
    <!-- 40.5 -->
    <g transform="translate(1013.178562 109.065944) scale(0.08 -0.08)">
     <use xlink:href="#DejaVuSans-34"/>
     <use xlink:href="#DejaVuSans-30" transform="translate(63.623047 0)"/>
     <use xlink:href="#DejaVuSans-2e" transform="translate(127.246094 0)"/>
     <use xlink:href="#DejaVuSans-35" transform="translate(159.033203 0)"/>
    </g>
   </g>
   <g id="text_52">
    <!-- Long-output O1K -->
    <g style="fill: #24292f" transform="translate(859.555078 68.4) scale(0.11 -0.11)">
     <defs>
      <path id="DejaVuSans-Bold-4c" d="M 588 4666
L 1791 4666
L 1791 909
L 3903 909
L 3903 0
L 588 0
L 588 4666
z
" transform="scale(0.015625)"/>
      <path id="DejaVuSans-Bold-6f" d="M 2203 2784
Q 1831 2784 1636 2517
Q 1441 2250 1441 1747
Q 1441 1244 1636 976
Q 1831 709 2203 709
Q 2569 709 2762 976
Q 2956 1244 2956 1747
Q 2956 2250 2762 2517
Q 2569 2784 2203 2784
z
M 2203 3584
Q 3106 3584 3614 3096
Q 4122 2609 4122 1747
Q 4122 884 3614 396
Q 3106 -91 2203 -91
Q 1297 -91 786 396
Q 275 884 275 1747
Q 275 2609 786 3096
Q 1297 3584 2203 3584
z
" transform="scale(0.015625)"/>
      <path id="DejaVuSans-Bold-67" d="M 2919 594
Q 2688 288 2409 144
Q 2131 0 1766 0
Q 1125 0 706 504
Q 288 1009 288 1791
Q 288 2575 706 3076
Q 1125 3578 1766 3578
Q 2131 3578 2409 3434
Q 2688 3291 2919 2981
L 2919 3500
L 4044 3500
L 4044 353
Q 4044 -491 3511 -936
Q 2978 -1381 1966 -1381
Q 1638 -1381 1331 -1331
Q 1025 -1281 716 -1178
L 716 -306
Q 1009 -475 1290 -558
Q 1572 -641 1856 -641
Q 2406 -641 2662 -400
Q 2919 -159 2919 353
L 2919 594
z
M 2181 2772
Q 1834 2772 1640 2515
Q 1447 2259 1447 1791
Q 1447 1309 1634 1061
Q 1822 813 2181 813
Q 2531 813 2725 1069
Q 2919 1325 2919 1791
Q 2919 2259 2725 2515
Q 2531 2772 2181 2772
z
" transform="scale(0.015625)"/>
      <path id="DejaVuSans-Bold-75" d="M 500 1363
L 500 3500
L 1625 3500
L 1625 3150
Q 1625 2866 1622 2436
Q 1619 2006 1619 1863
Q 1619 1441 1641 1255
Q 1663 1069 1716 984
Q 1784 875 1895 815
Q 2006 756 2150 756
Q 2500 756 2700 1025
Q 2900 1294 2900 1772
L 2900 3500
L 4019 3500
L 4019 0
L 2900 0
L 2900 506
Q 2647 200 2364 54
Q 2081 -91 1741 -91
Q 1134 -91 817 281
Q 500 653 500 1363
z
" transform="scale(0.015625)"/>
      <path id="DejaVuSans-Bold-4f" d="M 2719 3878
Q 2169 3878 1866 3472
Q 1563 3066 1563 2328
Q 1563 1594 1866 1187
Q 2169 781 2719 781
Q 3272 781 3575 1187
Q 3878 1594 3878 2328
Q 3878 3066 3575 3472
Q 3272 3878 2719 3878
z
M 2719 4750
Q 3844 4750 4481 4106
Q 5119 3463 5119 2328
Q 5119 1197 4481 553
Q 3844 -91 2719 -91
Q 1597 -91 958 553
Q 319 1197 319 2328
Q 319 3463 958 4106
Q 1597 4750 2719 4750
z
" transform="scale(0.015625)"/>
      <path id="DejaVuSans-Bold-31" d="M 750 831
L 1813 831
L 1813 3847
L 722 3622
L 722 4441
L 1806 4666
L 2950 4666
L 2950 831
L 4013 831
L 4013 0
L 750 0
L 750 831
z
" transform="scale(0.015625)"/>
      <path id="DejaVuSans-Bold-4b" d="M 588 4666
L 1791 4666
L 1791 2963
L 3525 4666
L 4922 4666
L 2675 2456
L 5153 0
L 3647 0
L 1791 1838
L 1791 0
L 588 0
L 588 4666
z
" transform="scale(0.015625)"/>
     </defs>
     <use xlink:href="#DejaVuSans-Bold-4c"/>
     <use xlink:href="#DejaVuSans-Bold-6f" transform="translate(63.720703 0)"/>
     <use xlink:href="#DejaVuSans-Bold-6e" transform="translate(132.421875 0)"/>
     <use xlink:href="#DejaVuSans-Bold-67" transform="translate(203.613281 0)"/>
     <use xlink:href="#DejaVuSans-Bold-2d" transform="translate(275.195312 0)"/>
     <use xlink:href="#DejaVuSans-Bold-6f" transform="translate(316.699219 0)"/>
     <use xlink:href="#DejaVuSans-Bold-75" transform="translate(385.400391 0)"/>
     <use xlink:href="#DejaVuSans-Bold-74" transform="translate(456.591797 0)"/>
     <use xlink:href="#DejaVuSans-Bold-70" transform="translate(504.394531 0)"/>
     <use xlink:href="#DejaVuSans-Bold-75" transform="translate(575.976562 0)"/>
     <use xlink:href="#DejaVuSans-Bold-74" transform="translate(647.167969 0)"/>
     <use xlink:href="#DejaVuSans-Bold-20" transform="translate(694.970703 0)"/>
     <use xlink:href="#DejaVuSans-Bold-4f" transform="translate(729.785156 0)"/>
     <use xlink:href="#DejaVuSans-Bold-31" transform="translate(814.794922 0)"/>
     <use xlink:href="#DejaVuSans-Bold-4b" transform="translate(884.375 0)"/>
    </g>
   </g>
  </g>
  <g id="text_53">
   <!-- Equal-resource ABBA: retain every measured arm -->
   <g transform="translate(325.73375 18.597656) scale(0.15 -0.15)">
    <defs>
     <path id="DejaVuSans-Bold-45" d="M 588 4666
L 3834 4666
L 3834 3756
L 1791 3756
L 1791 2888
L 3713 2888
L 3713 1978
L 1791 1978
L 1791 909
L 3903 909
L 3903 0
L 588 0
L 588 4666
z
" transform="scale(0.015625)"/>
     <path id="DejaVuSans-Bold-71" d="M 2181 2772
Q 1825 2772 1636 2509
Q 1447 2247 1447 1747
Q 1447 1247 1636 984
Q 1825 722 2181 722
Q 2541 722 2730 984
Q 2919 1247 2919 1747
Q 2919 2247 2730 2509
Q 2541 2772 2181 2772
z
M 2919 506
Q 2688 197 2409 53
Q 2131 -91 1766 -91
Q 1119 -91 703 423
Q 288 938 288 1747
Q 288 2556 703 3067
Q 1119 3578 1766 3578
Q 2131 3578 2409 3434
Q 2688 3291 2919 2981
L 2919 3500
L 4044 3500
L 4044 -1331
L 2919 -1331
L 2919 506
z
" transform="scale(0.015625)"/>
     <path id="DejaVuSans-Bold-6c" d="M 538 4863
L 1656 4863
L 1656 0
L 538 0
L 538 4863
z
" transform="scale(0.015625)"/>
     <path id="DejaVuSans-Bold-73" d="M 3272 3391
L 3272 2541
Q 2913 2691 2578 2766
Q 2244 2841 1947 2841
Q 1628 2841 1473 2761
Q 1319 2681 1319 2516
Q 1319 2381 1436 2309
Q 1553 2238 1856 2203
L 2053 2175
Q 2913 2066 3209 1816
Q 3506 1566 3506 1031
Q 3506 472 3093 190
Q 2681 -91 1863 -91
Q 1516 -91 1145 -36
Q 775 19 384 128
L 384 978
Q 719 816 1070 734
Q 1422 653 1784 653
Q 2113 653 2278 743
Q 2444 834 2444 1013
Q 2444 1163 2330 1236
Q 2216 1309 1875 1350
L 1678 1375
Q 931 1469 631 1722
Q 331 1975 331 2491
Q 331 3047 712 3315
Q 1094 3584 1881 3584
Q 2191 3584 2531 3537
Q 2872 3491 3272 3391
z
" transform="scale(0.015625)"/>
     <path id="DejaVuSans-Bold-63" d="M 3366 3391
L 3366 2478
Q 3138 2634 2908 2709
Q 2678 2784 2431 2784
Q 1963 2784 1702 2511
Q 1441 2238 1441 1747
Q 1441 1256 1702 982
Q 1963 709 2431 709
Q 2694 709 2930 787
Q 3166 866 3366 1019
L 3366 103
Q 3103 6 2833 -42
Q 2563 -91 2291 -91
Q 1344 -91 809 395
Q 275 881 275 1747
Q 275 2613 809 3098
Q 1344 3584 2291 3584
Q 2566 3584 2833 3536
Q 3100 3488 3366 3391
z
" transform="scale(0.015625)"/>
     <path id="DejaVuSans-Bold-41" d="M 3419 850
L 1538 850
L 1241 0
L 31 0
L 1759 4666
L 3194 4666
L 4922 0
L 3713 0
L 3419 850
z
M 1838 1716
L 3116 1716
L 2478 3572
L 1838 1716
z
" transform="scale(0.015625)"/>
     <path id="DejaVuSans-Bold-42" d="M 2456 2859
Q 2741 2859 2887 2984
Q 3034 3109 3034 3353
Q 3034 3594 2887 3720
Q 2741 3847 2456 3847
L 1791 3847
L 1791 2859
L 2456 2859
z
M 2497 819
Q 2859 819 3042 972
Q 3225 1125 3225 1434
Q 3225 1738 3044 1889
Q 2863 2041 2497 2041
L 1791 2041
L 1791 819
L 2497 819
z
M 3616 2497
Q 4003 2384 4215 2081
Q 4428 1778 4428 1338
Q 4428 663 3972 331
Q 3516 0 2584 0
L 588 0
L 588 4666
L 2394 4666
Q 3366 4666 3802 4372
Q 4238 4078 4238 3431
Q 4238 3091 4078 2852
Q 3919 2613 3616 2497
z
" transform="scale(0.015625)"/>
     <path id="DejaVuSans-Bold-3a" d="M 716 3500
L 1844 3500
L 1844 2291
L 716 2291
L 716 3500
z
M 716 1209
L 1844 1209
L 1844 0
L 716 0
L 716 1209
z
" transform="scale(0.015625)"/>
     <path id="DejaVuSans-Bold-76" d="M 97 3500
L 1216 3500
L 2088 1081
L 2956 3500
L 4078 3500
L 2700 0
L 1472 0
L 97 3500
z
" transform="scale(0.015625)"/>
     <path id="DejaVuSans-Bold-79" d="M 78 3500
L 1197 3500
L 2138 1125
L 2938 3500
L 4056 3500
L 2584 -331
Q 2363 -916 2067 -1148
Q 1772 -1381 1288 -1381
L 641 -1381
L 641 -647
L 991 -647
Q 1275 -647 1404 -556
Q 1534 -466 1606 -231
L 1638 -134
L 78 3500
z
" transform="scale(0.015625)"/>
     <path id="DejaVuSans-Bold-6d" d="M 3781 2919
Q 3994 3244 4286 3414
Q 4578 3584 4928 3584
Q 5531 3584 5847 3212
Q 6163 2841 6163 2131
L 6163 0
L 5038 0
L 5038 1825
Q 5041 1866 5042 1909
Q 5044 1953 5044 2034
Q 5044 2406 4934 2573
Q 4825 2741 4581 2741
Q 4263 2741 4089 2478
Q 3916 2216 3909 1719
L 3909 0
L 2784 0
L 2784 1825
Q 2784 2406 2684 2573
Q 2584 2741 2328 2741
Q 2006 2741 1831 2477
Q 1656 2213 1656 1722
L 1656 0
L 531 0
L 531 3500
L 1656 3500
L 1656 2988
Q 1863 3284 2130 3434
Q 2397 3584 2719 3584
Q 3081 3584 3359 3409
Q 3638 3234 3781 2919
z
" transform="scale(0.015625)"/>
    </defs>
    <use xlink:href="#DejaVuSans-Bold-45"/>
    <use xlink:href="#DejaVuSans-Bold-71" transform="translate(68.310547 0)"/>
    <use xlink:href="#DejaVuSans-Bold-75" transform="translate(139.892578 0)"/>
    <use xlink:href="#DejaVuSans-Bold-61" transform="translate(211.083984 0)"/>
    <use xlink:href="#DejaVuSans-Bold-6c" transform="translate(278.564453 0)"/>
    <use xlink:href="#DejaVuSans-Bold-2d" transform="translate(312.841797 0)"/>
    <use xlink:href="#DejaVuSans-Bold-72" transform="translate(354.345703 0)"/>
    <use xlink:href="#DejaVuSans-Bold-65" transform="translate(403.662109 0)"/>
    <use xlink:href="#DejaVuSans-Bold-73" transform="translate(471.484375 0)"/>
    <use xlink:href="#DejaVuSans-Bold-6f" transform="translate(531.005859 0)"/>
    <use xlink:href="#DejaVuSans-Bold-75" transform="translate(599.707031 0)"/>
    <use xlink:href="#DejaVuSans-Bold-72" transform="translate(670.898438 0)"/>
    <use xlink:href="#DejaVuSans-Bold-63" transform="translate(720.214844 0)"/>
    <use xlink:href="#DejaVuSans-Bold-65" transform="translate(779.492188 0)"/>
    <use xlink:href="#DejaVuSans-Bold-20" transform="translate(847.314453 0)"/>
    <use xlink:href="#DejaVuSans-Bold-41" transform="translate(882.128906 0)"/>
    <use xlink:href="#DejaVuSans-Bold-42" transform="translate(959.521484 0)"/>
    <use xlink:href="#DejaVuSans-Bold-42" transform="translate(1035.742188 0)"/>
    <use xlink:href="#DejaVuSans-Bold-41" transform="translate(1111.962891 0)"/>
    <use xlink:href="#DejaVuSans-Bold-3a" transform="translate(1191.230469 0)"/>
    <use xlink:href="#DejaVuSans-Bold-20" transform="translate(1231.220703 0)"/>
    <use xlink:href="#DejaVuSans-Bold-72" transform="translate(1266.035156 0)"/>
    <use xlink:href="#DejaVuSans-Bold-65" transform="translate(1315.351562 0)"/>
    <use xlink:href="#DejaVuSans-Bold-74" transform="translate(1383.173828 0)"/>
    <use xlink:href="#DejaVuSans-Bold-61" transform="translate(1430.976562 0)"/>
    <use xlink:href="#DejaVuSans-Bold-69" transform="translate(1498.457031 0)"/>
    <use xlink:href="#DejaVuSans-Bold-6e" transform="translate(1532.734375 0)"/>
    <use xlink:href="#DejaVuSans-Bold-20" transform="translate(1603.925781 0)"/>
    <use xlink:href="#DejaVuSans-Bold-65" transform="translate(1638.740234 0)"/>
    <use xlink:href="#DejaVuSans-Bold-76" transform="translate(1706.5625 0)"/>
    <use xlink:href="#DejaVuSans-Bold-65" transform="translate(1771.748047 0)"/>
    <use xlink:href="#DejaVuSans-Bold-72" transform="translate(1839.570312 0)"/>
    <use xlink:href="#DejaVuSans-Bold-79" transform="translate(1888.886719 0)"/>
    <use xlink:href="#DejaVuSans-Bold-20" transform="translate(1954.072266 0)"/>
    <use xlink:href="#DejaVuSans-Bold-6d" transform="translate(1988.886719 0)"/>
    <use xlink:href="#DejaVuSans-Bold-65" transform="translate(2093.085938 0)"/>
    <use xlink:href="#DejaVuSans-Bold-61" transform="translate(2160.908203 0)"/>
    <use xlink:href="#DejaVuSans-Bold-73" transform="translate(2228.388672 0)"/>
    <use xlink:href="#DejaVuSans-Bold-75" transform="translate(2287.910156 0)"/>
    <use xlink:href="#DejaVuSans-Bold-72" transform="translate(2359.101562 0)"/>
    <use xlink:href="#DejaVuSans-Bold-65" transform="translate(2408.417969 0)"/>
    <use xlink:href="#DejaVuSans-Bold-64" transform="translate(2476.240234 0)"/>
    <use xlink:href="#DejaVuSans-Bold-20" transform="translate(2547.822266 0)"/>
    <use xlink:href="#DejaVuSans-Bold-61" transform="translate(2582.636719 0)"/>
    <use xlink:href="#DejaVuSans-Bold-72" transform="translate(2650.117188 0)"/>
    <use xlink:href="#DejaVuSans-Bold-6d" transform="translate(2699.433594 0)"/>
   </g>
  </g>
 </g>
 <defs>
  <clipPath id="p78dbe0da02">
   <rect x="46.965625" y="74.4" width="305.5" height="217.832"/>
  </clipPath>
  <clipPath id="p577401d8ff">
   <rect x="403.335625" y="74.4" width="305.5" height="217.832"/>
  </clipPath>
  <clipPath id="p331defa11b">
   <rect x="759.705625" y="74.4" width="305.5" height="217.832"/>
  </clipPath>
 </defs>
</svg>
